<svg width="32" height="32" viewBox="0 0 32 32" fill="none" xmlns="http://www.w3.org/2000/svg">
<path d="M15.84 0C7.0917 0 0 7.0917 0 15.84C0 24.5883 7.0917 31.68 15.84 31.68C24.5883 31.68 31.68 24.5883 31.68 15.84C31.68 7.0917 24.5883 0 15.84 0ZM11.9625 22.4054H8.7549V12.083H11.9625V22.4054ZM10.3389 10.8158C9.3258 10.8158 8.67075 10.098 8.67075 9.2103C8.67075 8.30445 9.3456 7.60815 10.3802 7.60815C11.4147 7.60815 12.0483 8.30445 12.0681 9.2103C12.0681 10.098 11.4147 10.8158 10.3389 10.8158ZM23.6775 22.4054H20.4699V16.6848C20.4699 15.3533 20.0046 14.4491 18.8447 14.4491C17.9586 14.4491 17.4323 15.0612 17.1996 15.6503C17.1138 15.8598 17.0924 16.1568 17.0924 16.4522V22.4037H13.8831V15.3747C13.8831 14.0861 13.8419 13.0086 13.799 12.0813H16.5858L16.7327 13.5152H16.797C17.2194 12.842 18.254 11.8486 19.9848 11.8486C22.0952 11.8486 23.6775 13.2627 23.6775 16.302V22.4054Z" fill="black"/>
</svg>
