<svg width="150" height="150" viewBox="0 0 150 150" fill="none" xmlns="http://www.w3.org/2000/svg">
<path d="M101.814 78.8805C93.4227 87.2716 79.8183 87.2716 71.4273 78.8805C63.0363 70.4896 63.0363 56.8851 71.4273 48.4941C79.8183 40.1031 93.4228 40.1031 101.814 48.4941C110.205 56.8851 110.205 70.4896 101.814 78.8805Z" fill="#C8AE8F"/>
<path fill-rule="evenodd" clip-rule="evenodd" d="M75 150C116.421 150 150 116.421 150 75C150 33.5787 116.421 0 75 0C33.5786 0 0 33.5787 0 75C0 116.421 33.5786 150 75 150ZM70.05 83.1244L65.2167 87.9577C66.9003 90.8996 66.4861 94.7151 63.974 97.2272L43.9075 117.294C40.8994 120.302 36.0223 120.302 33.0142 117.294C30.0061 114.286 30.0061 109.409 33.0142 106.401L53.0807 86.3339C55.5928 83.8219 59.4082 83.4077 62.3501 85.0912L67.1834 80.2578C58.6098 70.2231 59.0688 55.1192 68.5606 45.6274C78.5348 35.6532 94.7062 35.6532 104.68 45.6274C114.655 55.6016 114.655 71.773 104.68 81.7472C95.1886 91.239 80.0847 91.698 70.05 83.1244Z" fill="#C8AE8F"/>
</svg>
