<svg width="150" height="150" viewBox="0 0 150 150" fill="none" xmlns="http://www.w3.org/2000/svg">
<path fill-rule="evenodd" clip-rule="evenodd" d="M75 150C116.421 150 150 116.421 150 75C150 33.5786 116.421 0 75 0C33.5786 0 0 33.5786 0 75C0 116.421 33.5786 150 75 150ZM94.0012 105.32L105.812 93.5096L99.627 87.3248L95.929 91.0228C95.3432 91.6086 94.3934 91.6086 93.8077 91.0228C93.2219 90.437 93.2219 89.4872 93.8077 88.9015L97.5057 85.2035L64.6644 52.3622L60.9664 56.0601C60.3807 56.6459 59.4309 56.6459 58.8451 56.0601C58.2593 55.4743 58.2593 54.5246 58.8451 53.9388L62.543 50.2409L55.4637 43.1615L43.6531 54.9721L94.0012 105.32ZM107.933 95.6309C109.105 94.4594 109.105 92.5599 107.933 91.3883L57.585 41.0402C56.4135 39.8686 54.514 39.8686 53.3424 41.0402L41.5318 52.8508C40.3602 54.0224 40.3602 55.9219 41.5318 57.0934L91.8799 107.442C93.0515 108.613 94.951 108.613 96.1225 107.442L107.933 95.6309Z" fill="#C8AE8F"/>
<path d="M91.4748 43.0552C92.4512 42.0789 94.0341 42.0789 95.0104 43.0552L106.553 54.5983C107.53 55.5746 107.53 57.1575 106.553 58.1338L65.5525 99.1348L47.2733 102.926C46.921 103 46.6091 102.688 46.6822 102.335L50.4739 84.0562L91.4748 43.0552Z" fill="#C8AE8F" stroke="white" stroke-width="3" stroke-linecap="round" stroke-linejoin="round"/>
<line x1="85.7033" y1="48.9988" x2="100.61" y2="63.9054" stroke="white" stroke-width="3"/>
</svg>
