<svg width="33" height="33" viewBox="0 0 33 33" fill="none" xmlns="http://www.w3.org/2000/svg">
<path fill-rule="evenodd" clip-rule="evenodd" d="M16.3398 0.339844C7.50247 0.339844 0.339844 7.68377 0.339844 16.7448C0.339844 23.9917 4.92296 30.1416 11.2819 32.3127C12.0824 32.4607 12.3711 31.9557 12.3711 31.5215C12.3711 31.1317 12.3583 30.0988 12.3535 28.732C7.90191 29.7221 6.96186 26.5313 6.96186 26.5313C6.23678 24.6365 5.18604 24.1315 5.18604 24.1315C3.73427 23.1134 5.29673 23.1365 5.29673 23.1365C6.90411 23.2516 7.7463 24.8273 7.7463 24.8273C9.17401 27.3339 11.4936 26.6102 12.4016 26.1908C12.5476 25.1299 12.9647 24.4062 13.4203 23.9967C9.86862 23.5838 6.13411 22.1759 6.13411 15.8879C6.13411 14.1 6.75813 12.6329 7.77678 11.4881C7.61476 11.072 7.06132 9.40257 7.93559 7.14593C7.93559 7.14593 9.27828 6.70349 12.3342 8.82525C13.6394 8.46121 14.9857 8.27539 16.3382 8.2726C17.6908 8.27485 19.0372 8.46068 20.3422 8.82525C23.3998 6.70184 24.7409 7.14593 24.7409 7.14593C25.6152 9.40257 25.0665 11.072 24.8997 11.4881C25.9264 12.6329 26.5424 14.0984 26.5424 15.8879C26.5424 22.1924 22.8047 23.5773 19.2402 23.9835C19.8097 24.4901 20.323 25.4901 20.323 27.0198C20.323 29.2139 20.3037 30.9837 20.3037 31.5215C20.3037 31.9607 20.5893 32.4706 21.4058 32.3094C27.7615 30.135 32.3398 23.9901 32.3398 16.7448C32.3398 7.68377 25.1772 0.339844 16.3398 0.339844Z" fill="black"/>
</svg>
