<svg width="304" height="258" viewBox="0 0 304 258" fill="none" xmlns="http://www.w3.org/2000/svg">
<path d="M6.448 38.128C5.30667 38.128 4.32533 37.8987 3.504 37.44C2.69333 36.9707 2.06933 36.304 1.632 35.44C1.20533 34.5653 0.992 33.5147 0.992 32.288C0.992 31.072 1.20533 30.032 1.632 29.168C2.06933 28.2933 2.688 27.6267 3.488 27.168C4.29867 26.7093 5.25333 26.48 6.352 26.48C7.14133 26.48 7.86667 26.6027 8.528 26.848C9.2 27.0827 9.78133 27.44 10.272 27.92L9.76 28.928C9.20533 28.4587 8.66133 28.1227 8.128 27.92C7.59467 27.7067 7.00267 27.6 6.352 27.6C5.06133 27.6 4.06933 28.0053 3.376 28.816C2.69333 29.616 2.352 30.7733 2.352 32.288C2.352 33.8347 2.704 35.0133 3.408 35.824C4.112 36.624 5.136 37.024 6.48 37.024C7.03467 37.024 7.57333 36.976 8.096 36.88C8.62933 36.7733 9.10933 36.6347 9.536 36.464L9.216 37.136V33.104H6.384V32.064H10.416V37.344C10.1173 37.504 9.74933 37.6427 9.312 37.76C8.88533 37.8773 8.42133 37.968 7.92 38.032C7.42933 38.096 6.93867 38.128 6.448 38.128ZM16.2791 38.112C15.5111 38.112 14.8391 37.9413 14.2631 37.6C13.6978 37.2587 13.2551 36.7787 12.9351 36.16C12.6258 35.5307 12.4711 34.7893 12.4711 33.936C12.4711 33.0933 12.6258 32.3573 12.9351 31.728C13.2551 31.0987 13.6978 30.6133 14.2631 30.272C14.8391 29.9307 15.5111 29.76 16.2791 29.76C17.0471 29.76 17.7138 29.9307 18.2791 30.272C18.8551 30.6133 19.2978 31.0987 19.6071 31.728C19.9271 32.3573 20.0871 33.0933 20.0871 33.936C20.0871 34.7893 19.9271 35.5307 19.6071 36.16C19.2978 36.7787 18.8551 37.2587 18.2791 37.6C17.7138 37.9413 17.0471 38.112 16.2791 38.112ZM16.2791 37.04C17.0685 37.04 17.6765 36.7787 18.1031 36.256C18.5405 35.7227 18.7591 34.9493 18.7591 33.936C18.7591 32.944 18.5405 32.1813 18.1031 31.648C17.6658 31.1147 17.0578 30.848 16.2791 30.848C15.5005 30.848 14.8871 31.1147 14.4391 31.648C14.0018 32.1813 13.7831 32.944 13.7831 33.936C13.7831 34.9493 13.9965 35.7227 14.4231 36.256C14.8605 36.7787 15.4791 37.04 16.2791 37.04ZM25.4354 38.112C24.6674 38.112 23.9954 37.9413 23.4194 37.6C22.854 37.2587 22.4114 36.7787 22.0914 36.16C21.782 35.5307 21.6274 34.7893 21.6274 33.936C21.6274 33.0933 21.782 32.3573 22.0914 31.728C22.4114 31.0987 22.854 30.6133 23.4194 30.272C23.9954 29.9307 24.6674 29.76 25.4354 29.76C26.2034 29.76 26.87 29.9307 27.4354 30.272C28.0114 30.6133 28.454 31.0987 28.7634 31.728C29.0834 32.3573 29.2434 33.0933 29.2434 33.936C29.2434 34.7893 29.0834 35.5307 28.7634 36.16C28.454 36.7787 28.0114 37.2587 27.4354 37.6C26.87 37.9413 26.2034 38.112 25.4354 38.112ZM25.4354 37.04C26.2247 37.04 26.8327 36.7787 27.2594 36.256C27.6967 35.7227 27.9154 34.9493 27.9154 33.936C27.9154 32.944 27.6967 32.1813 27.2594 31.648C26.822 31.1147 26.214 30.848 25.4354 30.848C24.6567 30.848 24.0434 31.1147 23.5954 31.648C23.158 32.1813 22.9394 32.944 22.9394 33.936C22.9394 34.9493 23.1527 35.7227 23.5794 36.256C24.0167 36.7787 24.6354 37.04 25.4354 37.04ZM34.7996 41.568C33.5836 41.568 32.5276 41.2907 31.6316 40.736L31.8556 39.68C32.357 39.968 32.8316 40.176 33.2796 40.304C33.7276 40.432 34.2343 40.496 34.7996 40.496C35.5676 40.496 36.149 40.288 36.5436 39.872C36.949 39.4667 37.1516 38.8587 37.1516 38.048V35.872L37.3276 35.664C37.1996 36.0907 36.997 36.464 36.7196 36.784C36.453 37.0933 36.1223 37.3333 35.7276 37.504C35.333 37.6747 34.885 37.76 34.3836 37.76C33.669 37.76 33.0396 37.5947 32.4956 37.264C31.9623 36.9227 31.541 36.4533 31.2316 35.856C30.933 35.2587 30.7836 34.56 30.7836 33.76C30.7836 32.96 30.933 32.2613 31.2316 31.664C31.541 31.0667 31.9623 30.6027 32.4956 30.272C33.0396 29.9307 33.669 29.76 34.3836 29.76C35.1303 29.76 35.7596 29.9467 36.2716 30.32C36.7943 30.6827 37.1463 31.1947 37.3276 31.856L37.1356 31.68V29.952H38.4316V37.936C38.4316 39.1413 38.1223 40.048 37.5036 40.656C36.8956 41.264 35.9943 41.568 34.7996 41.568ZM34.6396 36.672C35.4183 36.672 36.0263 36.416 36.4636 35.904C36.9116 35.3813 37.1356 34.6667 37.1356 33.76C37.1356 32.8533 36.9116 32.144 36.4636 31.632C36.0263 31.1093 35.4183 30.848 34.6396 30.848C33.8503 30.848 33.2263 31.1093 32.7676 31.632C32.3196 32.144 32.0956 32.8533 32.0956 33.76C32.0956 34.6773 32.3196 35.392 32.7676 35.904C33.2263 36.416 33.8503 36.672 34.6396 36.672ZM40.9199 38V26.224H42.2159V38H40.9199ZM51.3244 37.04C50.9724 37.3707 50.519 37.632 49.9644 37.824C49.4204 38.016 48.8604 38.112 48.2844 38.112C47.4524 38.112 46.7324 37.9467 46.1244 37.616C45.527 37.2853 45.063 36.8107 44.7324 36.192C44.4124 35.5627 44.2524 34.816 44.2524 33.952C44.2524 33.12 44.4124 32.3893 44.7324 31.76C45.0524 31.1307 45.495 30.64 46.0604 30.288C46.6364 29.936 47.2977 29.76 48.0444 29.76C48.759 29.76 49.3724 29.92 49.8844 30.24C50.3964 30.5493 50.7857 30.9973 51.0524 31.584C51.3297 32.1707 51.4684 32.8747 51.4684 33.696V33.936H45.3884V33.088H50.7324L50.3164 33.68C50.3377 32.7413 50.151 32.0213 49.7564 31.52C49.3724 31.0187 48.807 30.768 48.0604 30.768C47.2817 30.768 46.6684 31.0453 46.2204 31.6C45.783 32.144 45.5644 32.9013 45.5644 33.872C45.5644 34.9173 45.7937 35.7067 46.2524 36.24C46.7217 36.7733 47.4044 37.04 48.3004 37.04C48.7697 37.04 49.2177 36.9653 49.6444 36.816C50.0817 36.656 50.4977 36.416 50.8924 36.096L51.3244 37.04ZM57.7674 38V26.608H61.5914C62.8074 26.608 63.842 26.832 64.6954 27.28C65.5487 27.7173 66.1994 28.3627 66.6474 29.216C67.0954 30.0587 67.3194 31.0827 67.3194 32.288C67.3194 33.504 67.09 34.5387 66.6314 35.392C66.1834 36.2347 65.5327 36.88 64.6794 37.328C63.826 37.776 62.7967 38 61.5914 38H57.7674ZM59.0794 36.88H61.5114C62.9834 36.88 64.0874 36.496 64.8234 35.728C65.57 34.96 65.9434 33.8133 65.9434 32.288C65.9434 29.248 64.466 27.728 61.5114 27.728H59.0794V36.88ZM69.5449 38V32.208C69.5449 31.8347 69.5342 31.4613 69.5129 31.088C69.5022 30.704 69.4702 30.3253 69.4169 29.952H70.6489L70.8249 31.936L70.6489 31.888C70.7982 31.184 71.1182 30.656 71.6089 30.304C72.1102 29.9413 72.6702 29.76 73.2889 29.76C73.4275 29.76 73.5555 29.7707 73.6729 29.792C73.8009 29.8027 73.9182 29.824 74.0249 29.856L73.9929 31.04C73.7475 30.9547 73.4649 30.912 73.1449 30.912C72.5902 30.912 72.1422 31.0347 71.8009 31.28C71.4702 31.5253 71.2249 31.84 71.0649 32.224C70.9155 32.5973 70.8409 32.992 70.8409 33.408V38H69.5449ZM75.3418 38V29.952H76.6378V38H75.3418ZM75.2138 26.544H76.7978V28.016H75.2138V26.544ZM81.5223 38L78.0983 29.968H79.4583L82.3703 37.056H81.9863L84.9303 29.968H86.2263L82.7543 38H81.5223ZM94.1525 37.04C93.8005 37.3707 93.3472 37.632 92.7925 37.824C92.2485 38.016 91.6885 38.112 91.1125 38.112C90.2805 38.112 89.5605 37.9467 88.9525 37.616C88.3552 37.2853 87.8912 36.8107 87.5605 36.192C87.2405 35.5627 87.0805 34.816 87.0805 33.952C87.0805 33.12 87.2405 32.3893 87.5605 31.76C87.8805 31.1307 88.3232 30.64 88.8885 30.288C89.4645 29.936 90.1258 29.76 90.8725 29.76C91.5872 29.76 92.2005 29.92 92.7125 30.24C93.2245 30.5493 93.6138 30.9973 93.8805 31.584C94.1578 32.1707 94.2965 32.8747 94.2965 33.696V33.936H88.2165V33.088H93.5605L93.1445 33.68C93.1658 32.7413 92.9792 32.0213 92.5845 31.52C92.2005 31.0187 91.6352 30.768 90.8885 30.768C90.1098 30.768 89.4965 31.0453 89.0485 31.6C88.6112 32.144 88.3925 32.9013 88.3925 33.872C88.3925 34.9173 88.6218 35.7067 89.0805 36.24C89.5498 36.7733 90.2325 37.04 91.1285 37.04C91.5978 37.04 92.0458 36.9653 92.4725 36.816C92.9098 36.656 93.3258 36.416 93.7205 36.096L94.1525 37.04Z" fill="black"/>
<path d="M1.408 156V144.608H5.952C7.12533 144.608 8.03733 144.891 8.688 145.456C9.34933 146.021 9.68 146.8 9.68 147.792C9.68 148.773 9.34933 149.552 8.688 150.128C8.02667 150.704 7.11467 150.992 5.952 150.992H2.72V156H1.408ZM2.72 149.904H5.84C6.68267 149.904 7.31733 149.723 7.744 149.36C8.17067 148.987 8.384 148.464 8.384 147.792C8.384 147.12 8.17067 146.603 7.744 146.24C7.31733 145.877 6.68267 145.696 5.84 145.696H2.72V149.904ZM11.6699 156V147.952H12.9659V156H11.6699ZM11.5419 144.544H13.1259V146.016H11.5419V144.544ZM15.4824 156V150.208C15.4824 149.835 15.4717 149.461 15.4504 149.088C15.4397 148.704 15.4077 148.325 15.3544 147.952H16.5864L16.7304 149.616L16.5704 149.744C16.7944 149.093 17.1677 148.603 17.6904 148.272C18.213 147.931 18.8157 147.76 19.4984 147.76C21.429 147.76 22.3944 148.821 22.3944 150.944V156H21.0984V151.008C21.0984 150.261 20.949 149.717 20.6504 149.376C20.3517 149.024 19.8824 148.848 19.2424 148.848C18.4957 148.848 17.8984 149.077 17.4504 149.536C17.0024 149.995 16.7784 150.613 16.7784 151.392V156H15.4824ZM23.7058 148.976V147.952H28.8738V148.976H23.7058ZM28.8418 154.848V155.952C28.6604 156.005 28.4791 156.043 28.2977 156.064C28.1271 156.096 27.9351 156.112 27.7218 156.112C26.9751 156.112 26.3778 155.899 25.9298 155.472C25.4924 155.045 25.2738 154.405 25.2738 153.552V145.888L26.5698 145.424V153.376C26.5698 153.803 26.6284 154.133 26.7458 154.368C26.8738 154.603 27.0444 154.768 27.2578 154.864C27.4711 154.949 27.7111 154.992 27.9778 154.992C28.1378 154.992 28.2818 154.981 28.4098 154.96C28.5378 154.939 28.6818 154.901 28.8418 154.848ZM37.0275 155.04C36.6755 155.371 36.2222 155.632 35.6675 155.824C35.1235 156.016 34.5635 156.112 33.9875 156.112C33.1555 156.112 32.4355 155.947 31.8275 155.616C31.2302 155.285 30.7662 154.811 30.4355 154.192C30.1155 153.563 29.9555 152.816 29.9555 151.952C29.9555 151.12 30.1155 150.389 30.4355 149.76C30.7555 149.131 31.1982 148.64 31.7635 148.288C32.3395 147.936 33.0008 147.76 33.7475 147.76C34.4622 147.76 35.0755 147.92 35.5875 148.24C36.0995 148.549 36.4888 148.997 36.7555 149.584C37.0328 150.171 37.1715 150.875 37.1715 151.696V151.936H31.0915V151.088H36.4355L36.0195 151.68C36.0408 150.741 35.8542 150.021 35.4595 149.52C35.0755 149.019 34.5102 148.768 33.7635 148.768C32.9848 148.768 32.3715 149.045 31.9235 149.6C31.4862 150.144 31.2675 150.901 31.2675 151.872C31.2675 152.917 31.4968 153.707 31.9555 154.24C32.4248 154.773 33.1075 155.04 34.0035 155.04C34.4728 155.04 34.9208 154.965 35.3475 154.816C35.7848 154.656 36.2008 154.416 36.5955 154.096L37.0275 155.04ZM39.1386 156V150.208C39.1386 149.835 39.128 149.461 39.1066 149.088C39.096 148.704 39.064 148.325 39.0106 147.952H40.2426L40.4186 149.936L40.2426 149.888C40.392 149.184 40.712 148.656 41.2026 148.304C41.704 147.941 42.264 147.76 42.8826 147.76C43.0213 147.76 43.1493 147.771 43.2666 147.792C43.3946 147.803 43.512 147.824 43.6186 147.856L43.5866 149.04C43.3413 148.955 43.0586 148.912 42.7386 148.912C42.184 148.912 41.736 149.035 41.3946 149.28C41.064 149.525 40.8186 149.84 40.6586 150.224C40.5093 150.597 40.4346 150.992 40.4346 151.408V156H39.1386ZM51.3713 155.04C51.0193 155.371 50.5659 155.632 50.0113 155.824C49.4673 156.016 48.9073 156.112 48.3313 156.112C47.4993 156.112 46.7793 155.947 46.1713 155.616C45.5739 155.285 45.1099 154.811 44.7793 154.192C44.4593 153.563 44.2993 152.816 44.2993 151.952C44.2993 151.12 44.4593 150.389 44.7793 149.76C45.0993 149.131 45.5419 148.64 46.1073 148.288C46.6833 147.936 47.3446 147.76 48.0913 147.76C48.8059 147.76 49.4193 147.92 49.9313 148.24C50.4433 148.549 50.8326 148.997 51.0993 149.584C51.3766 150.171 51.5153 150.875 51.5153 151.696V151.936H45.4353V151.088H50.7793L50.3633 151.68C50.3846 150.741 50.1979 150.021 49.8033 149.52C49.4193 149.019 48.8539 148.768 48.1073 148.768C47.3286 148.768 46.7153 149.045 46.2673 149.6C45.8299 150.144 45.6113 150.901 45.6113 151.872C45.6113 152.917 45.8406 153.707 46.2993 154.24C46.7686 154.773 47.4513 155.04 48.3473 155.04C48.8166 155.04 49.2646 154.965 49.6913 154.816C50.1286 154.656 50.5446 154.416 50.9393 154.096L51.3713 155.04ZM56.2024 156.112C54.8477 156.112 53.7757 155.765 52.9864 155.072L53.4184 154.112C53.845 154.443 54.2824 154.688 54.7304 154.848C55.189 154.997 55.6957 155.072 56.2504 155.072C56.8584 155.072 57.317 154.971 57.6264 154.768C57.9464 154.555 58.1064 154.251 58.1064 153.856C58.1064 153.536 57.9997 153.285 57.7864 153.104C57.573 152.912 57.221 152.757 56.7304 152.64L55.3704 152.32C54.6984 152.171 54.1757 151.904 53.8024 151.52C53.4397 151.136 53.2584 150.677 53.2584 150.144C53.2584 149.675 53.3864 149.264 53.6424 148.912C53.8984 148.549 54.2557 148.267 54.7144 148.064C55.173 147.861 55.717 147.76 56.3464 147.76C56.9117 147.76 57.445 147.851 57.9464 148.032C58.4477 148.213 58.869 148.475 59.2104 148.816L58.7784 149.76C58.3944 149.44 57.9997 149.205 57.5944 149.056C57.1997 148.896 56.7837 148.816 56.3464 148.816C55.7704 148.816 55.3224 148.928 55.0024 149.152C54.693 149.376 54.5384 149.68 54.5384 150.064C54.5384 150.395 54.6344 150.656 54.8264 150.848C55.029 151.04 55.349 151.189 55.7864 151.296L57.1464 151.632C57.9037 151.792 58.4584 152.059 58.8104 152.432C59.173 152.795 59.3544 153.259 59.3544 153.824C59.3544 154.517 59.0717 155.072 58.5064 155.488C57.941 155.904 57.173 156.112 56.2024 156.112ZM60.2058 148.976V147.952H65.3738V148.976H60.2058ZM65.3418 154.848V155.952C65.1604 156.005 64.9791 156.043 64.7977 156.064C64.6271 156.096 64.4351 156.112 64.2218 156.112C63.4751 156.112 62.8778 155.899 62.4298 155.472C61.9924 155.045 61.7738 154.405 61.7738 153.552V145.888L63.0698 145.424V153.376C63.0698 153.803 63.1284 154.133 63.2458 154.368C63.3738 154.603 63.5444 154.768 63.7578 154.864C63.9711 154.949 64.2111 154.992 64.4778 154.992C64.6378 154.992 64.7818 154.981 64.9098 154.96C65.0378 154.939 65.1818 154.901 65.3418 154.848Z" fill="black"/>
<path d="M1.408 215V203.608H8.608V204.696H2.704V208.664H8.288V209.768H2.704V213.912H8.608V215H1.408ZM13.0223 215L9.59825 206.968H10.9583L13.8703 214.056H13.4863L16.4303 206.968H17.7263L14.2543 215H13.0223ZM25.6525 214.04C25.3005 214.371 24.8472 214.632 24.2925 214.824C23.7485 215.016 23.1885 215.112 22.6125 215.112C21.7805 215.112 21.0605 214.947 20.4525 214.616C19.8552 214.285 19.3912 213.811 19.0605 213.192C18.7405 212.563 18.5805 211.816 18.5805 210.952C18.5805 210.12 18.7405 209.389 19.0605 208.76C19.3805 208.131 19.8232 207.64 20.3885 207.288C20.9645 206.936 21.6258 206.76 22.3725 206.76C23.0872 206.76 23.7005 206.92 24.2125 207.24C24.7245 207.549 25.1138 207.997 25.3805 208.584C25.6578 209.171 25.7965 209.875 25.7965 210.696V210.936H19.7165V210.088H25.0605L24.6445 210.68C24.6658 209.741 24.4792 209.021 24.0845 208.52C23.7005 208.019 23.1352 207.768 22.3885 207.768C21.6098 207.768 20.9965 208.045 20.5485 208.6C20.1112 209.144 19.8925 209.901 19.8925 210.872C19.8925 211.917 20.1218 212.707 20.5805 213.24C21.0498 213.773 21.7325 214.04 22.6285 214.04C23.0978 214.04 23.5458 213.965 23.9725 213.816C24.4098 213.656 24.8258 213.416 25.2205 213.096L25.6525 214.04ZM27.7636 215V209.208C27.7636 208.835 27.753 208.461 27.7316 208.088C27.721 207.704 27.689 207.325 27.6356 206.952H28.8676L29.0436 208.936L28.8676 208.888C29.017 208.184 29.337 207.656 29.8276 207.304C30.329 206.941 30.889 206.76 31.5076 206.76C31.6463 206.76 31.7743 206.771 31.8916 206.792C32.0196 206.803 32.137 206.824 32.2436 206.856L32.2116 208.04C31.9663 207.955 31.6836 207.912 31.3636 207.912C30.809 207.912 30.361 208.035 30.0196 208.28C29.689 208.525 29.4436 208.84 29.2836 209.224C29.1343 209.597 29.0596 209.992 29.0596 210.408V215H27.7636ZM33.5605 215V209.208C33.5605 208.835 33.5498 208.461 33.5285 208.088C33.5178 207.704 33.4858 207.325 33.4325 206.952H34.6645L34.8085 208.616L34.6485 208.744C34.8725 208.093 35.2458 207.603 35.7685 207.272C36.2912 206.931 36.8938 206.76 37.5765 206.76C39.5072 206.76 40.4725 207.821 40.4725 209.944V215H39.1765V210.008C39.1765 209.261 39.0272 208.717 38.7285 208.376C38.4298 208.024 37.9605 207.848 37.3205 207.848C36.5738 207.848 35.9765 208.077 35.5285 208.536C35.0805 208.995 34.8565 209.613 34.8565 210.392V215H33.5605ZM46.2479 215.112C45.4799 215.112 44.8079 214.941 44.2319 214.6C43.6665 214.259 43.2239 213.779 42.9039 213.16C42.5945 212.531 42.4399 211.789 42.4399 210.936C42.4399 210.093 42.5945 209.357 42.9039 208.728C43.2239 208.099 43.6665 207.613 44.2319 207.272C44.8079 206.931 45.4799 206.76 46.2479 206.76C47.0159 206.76 47.6825 206.931 48.2479 207.272C48.8239 207.613 49.2665 208.099 49.5759 208.728C49.8959 209.357 50.0559 210.093 50.0559 210.936C50.0559 211.789 49.8959 212.531 49.5759 213.16C49.2665 213.779 48.8239 214.259 48.2479 214.6C47.6825 214.941 47.0159 215.112 46.2479 215.112ZM46.2479 214.04C47.0372 214.04 47.6452 213.779 48.0719 213.256C48.5092 212.723 48.7279 211.949 48.7279 210.936C48.7279 209.944 48.5092 209.181 48.0719 208.648C47.6345 208.115 47.0265 207.848 46.2479 207.848C45.4692 207.848 44.8559 208.115 44.4079 208.648C43.9705 209.181 43.7519 209.944 43.7519 210.936C43.7519 211.949 43.9652 212.723 44.3919 213.256C44.8292 213.779 45.4479 214.04 46.2479 214.04ZM50.9245 207.976V206.952H56.0925V207.976H50.9245ZM56.0605 213.848V214.952C55.8792 215.005 55.6978 215.043 55.5165 215.064C55.3458 215.096 55.1538 215.112 54.9405 215.112C54.1938 215.112 53.5965 214.899 53.1485 214.472C52.7112 214.045 52.4925 213.405 52.4925 212.552V204.888L53.7885 204.424V212.376C53.7885 212.803 53.8472 213.133 53.9645 213.368C54.0925 213.603 54.2632 213.768 54.4765 213.864C54.6898 213.949 54.9298 213.992 55.1965 213.992C55.3565 213.992 55.5005 213.981 55.6285 213.96C55.7565 213.939 55.9005 213.901 56.0605 213.848ZM64.2463 214.04C63.8943 214.371 63.4409 214.632 62.8863 214.824C62.3423 215.016 61.7823 215.112 61.2063 215.112C60.3743 215.112 59.6543 214.947 59.0463 214.616C58.4489 214.285 57.9849 213.811 57.6543 213.192C57.3343 212.563 57.1743 211.816 57.1743 210.952C57.1743 210.12 57.3343 209.389 57.6543 208.76C57.9743 208.131 58.4169 207.64 58.9823 207.288C59.5583 206.936 60.2196 206.76 60.9663 206.76C61.6809 206.76 62.2943 206.92 62.8063 207.24C63.3183 207.549 63.7076 207.997 63.9743 208.584C64.2516 209.171 64.3903 209.875 64.3903 210.696V210.936H58.3103V210.088H63.6543L63.2383 210.68C63.2596 209.741 63.0729 209.021 62.6783 208.52C62.2943 208.019 61.7289 207.768 60.9823 207.768C60.2036 207.768 59.5903 208.045 59.1423 208.6C58.7049 209.144 58.4863 209.901 58.4863 210.872C58.4863 211.917 58.7156 212.707 59.1743 213.24C59.6436 213.773 60.3263 214.04 61.2223 214.04C61.6916 214.04 62.1396 213.965 62.5663 213.816C63.0036 213.656 63.4196 213.416 63.8143 213.096L64.2463 214.04Z" fill="black"/>
<path d="M1.408 97V85.608H5.232C6.448 85.608 7.48267 85.832 8.336 86.28C9.18933 86.7173 9.84 87.3627 10.288 88.216C10.736 89.0587 10.96 90.0827 10.96 91.288C10.96 92.504 10.7307 93.5387 10.272 94.392C9.824 95.2347 9.17333 95.88 8.32 96.328C7.46667 96.776 6.43733 97 5.232 97H1.408ZM2.72 95.88H5.152C6.624 95.88 7.728 95.496 8.464 94.728C9.21067 93.96 9.584 92.8133 9.584 91.288C9.584 88.248 8.10667 86.728 5.152 86.728H2.72V95.88ZM13.1855 97V91.208C13.1855 90.8347 13.1748 90.4613 13.1535 90.088C13.1428 89.704 13.1108 89.3253 13.0575 88.952H14.2895L14.4655 90.936L14.2895 90.888C14.4388 90.184 14.7588 89.656 15.2495 89.304C15.7508 88.9413 16.3108 88.76 16.9295 88.76C17.0682 88.76 17.1962 88.7707 17.3135 88.792C17.4415 88.8027 17.5588 88.824 17.6655 88.856L17.6335 90.04C17.3882 89.9547 17.1055 89.912 16.7855 89.912C16.2308 89.912 15.7828 90.0347 15.4415 90.28C15.1108 90.5253 14.8655 90.84 14.7055 91.224C14.5562 91.5973 14.4815 91.992 14.4815 92.408V97H13.1855ZM22.1541 97.112C21.3861 97.112 20.7141 96.9413 20.1381 96.6C19.5728 96.2587 19.1301 95.7787 18.8101 95.16C18.5008 94.5307 18.3461 93.7893 18.3461 92.936C18.3461 92.0933 18.5008 91.3573 18.8101 90.728C19.1301 90.0987 19.5728 89.6133 20.1381 89.272C20.7141 88.9307 21.3861 88.76 22.1541 88.76C22.9221 88.76 23.5888 88.9307 24.1541 89.272C24.7301 89.6133 25.1728 90.0987 25.4821 90.728C25.8021 91.3573 25.9621 92.0933 25.9621 92.936C25.9621 93.7893 25.8021 94.5307 25.4821 95.16C25.1728 95.7787 24.7301 96.2587 24.1541 96.6C23.5888 96.9413 22.9221 97.112 22.1541 97.112ZM22.1541 96.04C22.9435 96.04 23.5515 95.7787 23.9781 95.256C24.4155 94.7227 24.6341 93.9493 24.6341 92.936C24.6341 91.944 24.4155 91.1813 23.9781 90.648C23.5408 90.1147 22.9328 89.848 22.1541 89.848C21.3755 89.848 20.7621 90.1147 20.3141 90.648C19.8768 91.1813 19.6581 91.944 19.6581 92.936C19.6581 93.9493 19.8715 94.7227 20.2981 95.256C20.7355 95.7787 21.3541 96.04 22.1541 96.04ZM27.9824 100.456V91.208C27.9824 90.8347 27.9717 90.4613 27.9504 90.088C27.9397 89.704 27.9077 89.3253 27.8544 88.952H29.0864L29.2304 90.616L29.1024 90.856C29.2837 90.184 29.6304 89.6667 30.1424 89.304C30.6544 88.9413 31.273 88.76 31.9984 88.76C32.7024 88.76 33.321 88.936 33.8544 89.288C34.3984 89.64 34.8197 90.1307 35.1184 90.76C35.4277 91.3893 35.5824 92.1253 35.5824 92.968C35.5824 93.8107 35.4277 94.5467 35.1184 95.176C34.8197 95.7947 34.4037 96.2747 33.8704 96.616C33.337 96.9467 32.713 97.112 31.9984 97.112C31.273 97.112 30.6544 96.9307 30.1424 96.568C29.6304 96.2053 29.2837 95.688 29.1024 95.016L29.2784 94.856V100.456H27.9824ZM31.7584 96.04C32.537 96.04 33.145 95.7733 33.5824 95.24C34.0197 94.7067 34.2384 93.9493 34.2384 92.968C34.2384 91.9867 34.0197 91.224 33.5824 90.68C33.145 90.1253 32.537 89.848 31.7584 89.848C30.9584 89.848 30.345 90.1147 29.9184 90.648C29.4917 91.1813 29.2784 91.944 29.2784 92.936C29.2784 93.928 29.4917 94.696 29.9184 95.24C30.345 95.7733 30.9584 96.04 31.7584 96.04ZM37.5761 97V85.224H38.8721V91.016L38.6961 90.856C38.8775 90.1947 39.2241 89.6827 39.7361 89.32C40.2481 88.9467 40.8668 88.76 41.5921 88.76C42.3068 88.76 42.9308 88.9307 43.4641 89.272C43.9975 89.6133 44.4135 90.0933 44.7121 90.712C45.0215 91.3307 45.1761 92.0613 45.1761 92.904C45.1761 93.7467 45.0215 94.488 44.7121 95.128C44.4135 95.7573 43.9921 96.248 43.4481 96.6C42.9148 96.9413 42.2961 97.112 41.5921 97.112C40.8668 97.112 40.2481 96.9307 39.7361 96.568C39.2241 96.2053 38.8775 95.688 38.6961 95.016L38.8721 94.84V97H37.5761ZM41.3521 96.04C42.1308 96.04 42.7388 95.768 43.1761 95.224C43.6135 94.6693 43.8321 93.896 43.8321 92.904C43.8321 91.9333 43.6135 91.1813 43.1761 90.648C42.7388 90.1147 42.1308 89.848 41.3521 89.848C40.5521 89.848 39.9388 90.12 39.5121 90.664C39.0855 91.1973 38.8721 91.9547 38.8721 92.936C38.8721 93.928 39.0855 94.696 39.5121 95.24C39.9388 95.7733 40.5521 96.04 41.3521 96.04ZM50.4979 97.112C49.7299 97.112 49.0579 96.9413 48.4819 96.6C47.9165 96.2587 47.4739 95.7787 47.1539 95.16C46.8445 94.5307 46.6899 93.7893 46.6899 92.936C46.6899 92.0933 46.8445 91.3573 47.1539 90.728C47.4739 90.0987 47.9165 89.6133 48.4819 89.272C49.0579 88.9307 49.7299 88.76 50.4979 88.76C51.2659 88.76 51.9325 88.9307 52.4979 89.272C53.0739 89.6133 53.5165 90.0987 53.8259 90.728C54.1459 91.3573 54.3059 92.0933 54.3059 92.936C54.3059 93.7893 54.1459 94.5307 53.8259 95.16C53.5165 95.7787 53.0739 96.2587 52.4979 96.6C51.9325 96.9413 51.2659 97.112 50.4979 97.112ZM50.4979 96.04C51.2872 96.04 51.8952 95.7787 52.3219 95.256C52.7592 94.7227 52.9779 93.9493 52.9779 92.936C52.9779 91.944 52.7592 91.1813 52.3219 90.648C51.8845 90.1147 51.2765 89.848 50.4979 89.848C49.7192 89.848 49.1059 90.1147 48.6579 90.648C48.2205 91.1813 48.0019 91.944 48.0019 92.936C48.0019 93.9493 48.2152 94.7227 48.6419 95.256C49.0792 95.7787 49.6979 96.04 50.4979 96.04ZM61.7379 97L59.1939 93.832L58.4419 92.856L55.2899 88.952H56.8579L59.1939 91.912L59.9779 92.856L63.2899 97H61.7379ZM56.6819 97H55.0979L58.4419 92.856L59.1939 91.912L61.5299 88.952H63.1139L59.9779 92.856L59.1939 93.832L56.6819 97Z" fill="black"/>
<path d="M112.5 258L112.5 1L303.5 1" stroke="#E0E0E0"/>
<rect x="266" y="11" width="36" height="154" transform="rotate(90 266 11)" fill="#0A1D24"/>
<rect x="266" y="70" width="36" height="154" transform="rotate(90 266 70)" fill="#0A1D24"/>
<rect x="162" y="129" width="36" height="50" transform="rotate(90 162 129)" fill="#0A1D24"/>
<rect x="146" y="188" width="36" height="34" transform="rotate(90 146 188)" fill="#0A1D24"/>
<path d="M233.8 35.112C232.968 35.112 232.248 34.9893 231.64 34.744C231.032 34.488 230.557 34.1253 230.216 33.656C229.885 33.1867 229.72 32.6267 229.72 31.976C229.72 31.1867 229.987 30.5307 230.52 30.008C231.053 29.4853 231.768 29.16 232.664 29.032L232.584 29.272C231.752 29.112 231.107 28.7867 230.648 28.296C230.2 27.8053 229.976 27.208 229.976 26.504C229.976 25.8853 230.136 25.352 230.456 24.904C230.787 24.4453 231.235 24.0933 231.8 23.848C232.376 23.6027 233.043 23.48 233.8 23.48C234.557 23.48 235.219 23.6027 235.784 23.848C236.36 24.0933 236.808 24.4453 237.128 24.904C237.459 25.352 237.624 25.8853 237.624 26.504C237.624 27.208 237.395 27.8107 236.936 28.312C236.488 28.8027 235.853 29.1227 235.032 29.272L234.936 29.032C235.864 29.16 236.584 29.4907 237.096 30.024C237.619 30.5467 237.88 31.1973 237.88 31.976C237.88 32.6267 237.709 33.1867 237.368 33.656C237.037 34.1253 236.568 34.488 235.96 34.744C235.352 34.9893 234.632 35.112 233.8 35.112ZM233.8 34.024C234.696 34.024 235.384 33.8427 235.864 33.48C236.344 33.1173 236.584 32.5893 236.584 31.896C236.584 31.2453 236.323 30.7387 235.8 30.376C235.277 30.0027 234.611 29.7733 233.8 29.688C232.989 29.7733 232.323 30.0027 231.8 30.376C231.277 30.7387 231.016 31.2453 231.016 31.896C231.016 32.5893 231.256 33.1173 231.736 33.48C232.216 33.8427 232.904 34.024 233.8 34.024ZM233.8 28.776C234.547 28.6907 235.149 28.4613 235.608 28.088C236.077 27.7147 236.312 27.2187 236.312 26.6C236.312 25.96 236.088 25.464 235.64 25.112C235.203 24.7493 234.589 24.568 233.8 24.568C233.011 24.568 232.392 24.7493 231.944 25.112C231.507 25.464 231.288 25.96 231.288 26.6C231.288 27.2187 231.517 27.7147 231.976 28.088C232.445 28.4613 233.053 28.6907 233.8 28.776ZM244.626 35V25.256H245.026L240.29 32.088L240.306 31.432L247.666 31.432V32.52H239.378V31.528L244.866 23.608H245.938V35H244.626ZM251.228 30.504C250.449 30.504 249.83 30.216 249.372 29.64C248.924 29.064 248.7 28.1893 248.7 27.016C248.7 25.832 248.924 24.9573 249.372 24.392C249.83 23.8267 250.449 23.544 251.228 23.544C252.006 23.544 252.62 23.8267 253.068 24.392C253.516 24.9573 253.74 25.832 253.74 27.016C253.74 28.1893 253.516 29.064 253.068 29.64C252.62 30.216 252.006 30.504 251.228 30.504ZM251.228 29.576C251.676 29.576 252.006 29.3733 252.22 28.968C252.444 28.5627 252.556 27.912 252.556 27.016C252.556 26.1307 252.444 25.4853 252.22 25.08C252.006 24.6747 251.676 24.472 251.228 24.472C250.78 24.472 250.444 24.6747 250.22 25.08C250.006 25.4853 249.9 26.1307 249.9 27.016C249.9 27.912 250.006 28.5627 250.22 28.968C250.444 29.3733 250.78 29.576 251.228 29.576ZM251.02 35L257.612 23.608H258.844L252.268 35H251.02ZM258.636 35.064C257.857 35.064 257.238 34.776 256.78 34.2C256.332 33.624 256.108 32.7493 256.108 31.576C256.108 30.392 256.332 29.5173 256.78 28.952C257.238 28.3867 257.857 28.104 258.636 28.104C259.414 28.104 260.028 28.3867 260.476 28.952C260.924 29.5173 261.148 30.392 261.148 31.576C261.148 32.7493 260.924 33.624 260.476 34.2C260.028 34.776 259.414 35.064 258.636 35.064ZM258.636 34.136C259.084 34.136 259.414 33.9333 259.628 33.528C259.852 33.1227 259.964 32.472 259.964 31.576C259.964 30.6907 259.852 30.0453 259.628 29.64C259.414 29.2347 259.084 29.032 258.636 29.032C258.188 29.032 257.852 29.2347 257.628 29.64C257.414 30.0453 257.308 30.6907 257.308 31.576C257.308 32.472 257.414 33.1227 257.628 33.528C257.852 33.9333 258.188 34.136 258.636 34.136Z" fill="#F9F9F8"/>
<path d="M233.8 94.112C232.968 94.112 232.248 93.9893 231.64 93.744C231.032 93.488 230.557 93.1253 230.216 92.656C229.885 92.1867 229.72 91.6267 229.72 90.976C229.72 90.1867 229.987 89.5307 230.52 89.008C231.053 88.4853 231.768 88.16 232.664 88.032L232.584 88.272C231.752 88.112 231.107 87.7867 230.648 87.296C230.2 86.8053 229.976 86.208 229.976 85.504C229.976 84.8853 230.136 84.352 230.456 83.904C230.787 83.4453 231.235 83.0933 231.8 82.848C232.376 82.6027 233.043 82.48 233.8 82.48C234.557 82.48 235.219 82.6027 235.784 82.848C236.36 83.0933 236.808 83.4453 237.128 83.904C237.459 84.352 237.624 84.8853 237.624 85.504C237.624 86.208 237.395 86.8107 236.936 87.312C236.488 87.8027 235.853 88.1227 235.032 88.272L234.936 88.032C235.864 88.16 236.584 88.4907 237.096 89.024C237.619 89.5467 237.88 90.1973 237.88 90.976C237.88 91.6267 237.709 92.1867 237.368 92.656C237.037 93.1253 236.568 93.488 235.96 93.744C235.352 93.9893 234.632 94.112 233.8 94.112ZM233.8 93.024C234.696 93.024 235.384 92.8427 235.864 92.48C236.344 92.1173 236.584 91.5893 236.584 90.896C236.584 90.2453 236.323 89.7387 235.8 89.376C235.277 89.0027 234.611 88.7733 233.8 88.688C232.989 88.7733 232.323 89.0027 231.8 89.376C231.277 89.7387 231.016 90.2453 231.016 90.896C231.016 91.5893 231.256 92.1173 231.736 92.48C232.216 92.8427 232.904 93.024 233.8 93.024ZM233.8 87.776C234.547 87.6907 235.149 87.4613 235.608 87.088C236.077 86.7147 236.312 86.2187 236.312 85.6C236.312 84.96 236.088 84.464 235.64 84.112C235.203 83.7493 234.589 83.568 233.8 83.568C233.011 83.568 232.392 83.7493 231.944 84.112C231.507 84.464 231.288 84.96 231.288 85.6C231.288 86.2187 231.517 86.7147 231.976 87.088C232.445 87.4613 233.053 87.6907 233.8 87.776ZM244.626 94V84.256H245.026L240.29 91.088L240.306 90.432H247.666V91.52H239.378V90.528L244.866 82.608H245.938V94H244.626ZM251.228 89.504C250.449 89.504 249.83 89.216 249.372 88.64C248.924 88.064 248.7 87.1893 248.7 86.016C248.7 84.832 248.924 83.9573 249.372 83.392C249.83 82.8267 250.449 82.544 251.228 82.544C252.006 82.544 252.62 82.8267 253.068 83.392C253.516 83.9573 253.74 84.832 253.74 86.016C253.74 87.1893 253.516 88.064 253.068 88.64C252.62 89.216 252.006 89.504 251.228 89.504ZM251.228 88.576C251.676 88.576 252.006 88.3733 252.22 87.968C252.444 87.5627 252.556 86.912 252.556 86.016C252.556 85.1307 252.444 84.4853 252.22 84.08C252.006 83.6747 251.676 83.472 251.228 83.472C250.78 83.472 250.444 83.6747 250.22 84.08C250.006 84.4853 249.9 85.1307 249.9 86.016C249.9 86.912 250.006 87.5627 250.22 87.968C250.444 88.3733 250.78 88.576 251.228 88.576ZM251.02 94L257.612 82.608H258.844L252.268 94H251.02ZM258.636 94.064C257.857 94.064 257.238 93.776 256.78 93.2C256.332 92.624 256.108 91.7493 256.108 90.576C256.108 89.392 256.332 88.5173 256.78 87.952C257.238 87.3867 257.857 87.104 258.636 87.104C259.414 87.104 260.028 87.3867 260.476 87.952C260.924 88.5173 261.148 89.392 261.148 90.576C261.148 91.7493 260.924 92.624 260.476 93.2C260.028 93.776 259.414 94.064 258.636 94.064ZM258.636 93.136C259.084 93.136 259.414 92.9333 259.628 92.528C259.852 92.1227 259.964 91.472 259.964 90.576C259.964 89.6907 259.852 89.0453 259.628 88.64C259.414 88.2347 259.084 88.032 258.636 88.032C258.188 88.032 257.852 88.2347 257.628 88.64C257.414 89.0453 257.308 89.6907 257.308 90.576C257.308 91.472 257.414 92.1227 257.628 92.528C257.852 92.9333 258.188 93.136 258.636 93.136Z" fill="#F9F9F8"/>
<path d="M127.688 153.112C126.952 153.112 126.243 152.989 125.56 152.744C124.888 152.499 124.317 152.152 123.848 151.704L124.36 150.696C124.872 151.133 125.4 151.464 125.944 151.688C126.488 151.901 127.059 152.008 127.656 152.008C128.467 152.008 129.08 151.827 129.496 151.464C129.923 151.101 130.136 150.568 130.136 149.864C130.136 149.16 129.917 148.637 129.48 148.296C129.043 147.944 128.387 147.768 127.512 147.768H126.2V146.664H127.256C128.099 146.664 128.744 146.477 129.192 146.104C129.64 145.731 129.864 145.197 129.864 144.504C129.864 143.885 129.677 143.411 129.304 143.08C128.941 142.749 128.424 142.584 127.752 142.584C127.187 142.584 126.637 142.696 126.104 142.92C125.571 143.133 125.043 143.459 124.52 143.896L124.024 142.888C124.483 142.451 125.048 142.109 125.72 141.864C126.392 141.608 127.085 141.48 127.8 141.48C128.483 141.48 129.08 141.603 129.592 141.848C130.104 142.083 130.493 142.419 130.76 142.856C131.037 143.293 131.176 143.811 131.176 144.408C131.176 145.112 130.989 145.715 130.616 146.216C130.253 146.707 129.752 147.043 129.112 147.224L129.064 147.064C129.832 147.224 130.419 147.549 130.824 148.04C131.229 148.531 131.432 149.155 131.432 149.912C131.432 150.904 131.096 151.688 130.424 152.264C129.752 152.829 128.84 153.112 127.688 153.112ZM133.922 153V152.008L137.906 147.592C138.439 146.995 138.828 146.456 139.074 145.976C139.319 145.496 139.442 145.016 139.442 144.536C139.442 143.907 139.26 143.427 138.898 143.096C138.535 142.755 138.018 142.584 137.346 142.584C136.791 142.584 136.247 142.696 135.714 142.92C135.18 143.133 134.647 143.459 134.114 143.896L133.618 142.888C134.066 142.461 134.631 142.12 135.314 141.864C135.996 141.608 136.684 141.48 137.378 141.48C138.071 141.48 138.668 141.603 139.17 141.848C139.682 142.083 140.076 142.424 140.354 142.872C140.631 143.32 140.77 143.853 140.77 144.472C140.77 145.123 140.62 145.752 140.322 146.36C140.034 146.957 139.548 147.629 138.866 148.376L135.026 152.536L134.93 151.896H141.25V153H133.922ZM145.228 148.504C144.449 148.504 143.83 148.216 143.372 147.64C142.924 147.064 142.7 146.189 142.7 145.016C142.7 143.832 142.924 142.957 143.372 142.392C143.83 141.827 144.449 141.544 145.228 141.544C146.006 141.544 146.62 141.827 147.068 142.392C147.516 142.957 147.74 143.832 147.74 145.016C147.74 146.189 147.516 147.064 147.068 147.64C146.62 148.216 146.006 148.504 145.228 148.504ZM145.228 147.576C145.676 147.576 146.006 147.373 146.22 146.968C146.444 146.563 146.556 145.912 146.556 145.016C146.556 144.131 146.444 143.485 146.22 143.08C146.006 142.675 145.676 142.472 145.228 142.472C144.78 142.472 144.444 142.675 144.22 143.08C144.006 143.485 143.9 144.131 143.9 145.016C143.9 145.912 144.006 146.563 144.22 146.968C144.444 147.373 144.78 147.576 145.228 147.576ZM145.02 153L151.612 141.608H152.844L146.268 153H145.02ZM152.636 153.064C151.857 153.064 151.238 152.776 150.78 152.2C150.332 151.624 150.108 150.749 150.108 149.576C150.108 148.392 150.332 147.517 150.78 146.952C151.238 146.387 151.857 146.104 152.636 146.104C153.414 146.104 154.028 146.387 154.476 146.952C154.924 147.517 155.148 148.392 155.148 149.576C155.148 150.749 154.924 151.624 154.476 152.2C154.028 152.776 153.414 153.064 152.636 153.064ZM152.636 152.136C153.084 152.136 153.414 151.933 153.628 151.528C153.852 151.123 153.964 150.472 153.964 149.576C153.964 148.691 153.852 148.045 153.628 147.64C153.414 147.235 153.084 147.032 152.636 147.032C152.188 147.032 151.852 147.235 151.628 147.64C151.414 148.045 151.308 148.691 151.308 149.576C151.308 150.472 151.414 151.123 151.628 151.528C151.852 151.933 152.188 152.136 152.636 152.136Z" fill="#F9F9F8"/>
<path d="M117.56 211.408V201.376L118.312 201.76L115.224 203.728V202.464L118.136 200.608H118.888V211.408H117.56ZM115.048 212V210.896H121.4V212H115.048ZM127.762 212.128C126.386 212.128 125.324 211.653 124.578 210.704C123.831 209.744 123.458 208.373 123.458 206.592C123.458 205.301 123.628 204.203 123.97 203.296C124.322 202.379 124.823 201.68 125.474 201.2C126.135 200.72 126.924 200.48 127.842 200.48C128.503 200.48 129.143 200.603 129.762 200.848C130.38 201.083 130.93 201.429 131.41 201.888L130.914 202.896C130.38 202.437 129.863 202.107 129.362 201.904C128.871 201.691 128.375 201.584 127.874 201.584C126.892 201.584 126.13 202.021 125.586 202.896C125.042 203.76 124.77 204.987 124.77 206.576V207.952L124.578 207.52C124.663 206.976 124.86 206.507 125.17 206.112C125.479 205.707 125.863 205.397 126.322 205.184C126.791 204.96 127.308 204.848 127.874 204.848C128.578 204.848 129.196 205.003 129.73 205.312C130.263 205.611 130.679 206.032 130.978 206.576C131.276 207.12 131.426 207.749 131.426 208.464C131.426 209.168 131.266 209.797 130.946 210.352C130.636 210.907 130.204 211.344 129.65 211.664C129.106 211.973 128.476 212.128 127.762 212.128ZM127.698 211.024C128.423 211.024 129.01 210.795 129.458 210.336C129.906 209.867 130.13 209.248 130.13 208.48C130.13 207.723 129.906 207.115 129.458 206.656C129.01 206.187 128.418 205.952 127.682 205.952C127.191 205.952 126.754 206.064 126.37 206.288C125.986 206.501 125.687 206.8 125.474 207.184C125.26 207.557 125.154 207.989 125.154 208.48C125.154 208.992 125.26 209.44 125.474 209.824C125.687 210.197 125.986 210.491 126.37 210.704C126.754 210.917 127.196 211.024 127.698 211.024ZM135.228 207.504C134.449 207.504 133.83 207.216 133.372 206.64C132.924 206.064 132.7 205.189 132.7 204.016C132.7 202.832 132.924 201.957 133.372 201.392C133.83 200.827 134.449 200.544 135.228 200.544C136.006 200.544 136.62 200.827 137.068 201.392C137.516 201.957 137.74 202.832 137.74 204.016C137.74 205.189 137.516 206.064 137.068 206.64C136.62 207.216 136.006 207.504 135.228 207.504ZM135.228 206.576C135.676 206.576 136.006 206.373 136.22 205.968C136.444 205.563 136.556 204.912 136.556 204.016C136.556 203.131 136.444 202.485 136.22 202.08C136.006 201.675 135.676 201.472 135.228 201.472C134.78 201.472 134.444 201.675 134.22 202.08C134.006 202.485 133.9 203.131 133.9 204.016C133.9 204.912 134.006 205.563 134.22 205.968C134.444 206.373 134.78 206.576 135.228 206.576ZM135.02 212L141.612 200.608H142.844L136.268 212H135.02ZM142.636 212.064C141.857 212.064 141.238 211.776 140.78 211.2C140.332 210.624 140.108 209.749 140.108 208.576C140.108 207.392 140.332 206.517 140.78 205.952C141.238 205.387 141.857 205.104 142.636 205.104C143.414 205.104 144.028 205.387 144.476 205.952C144.924 206.517 145.148 207.392 145.148 208.576C145.148 209.749 144.924 210.624 144.476 211.2C144.028 211.776 143.414 212.064 142.636 212.064ZM142.636 211.136C143.084 211.136 143.414 210.933 143.628 210.528C143.852 210.123 143.964 209.472 143.964 208.576C143.964 207.691 143.852 207.045 143.628 206.64C143.414 206.235 143.084 206.032 142.636 206.032C142.188 206.032 141.852 206.235 141.628 206.64C141.414 207.045 141.308 207.691 141.308 208.576C141.308 209.472 141.414 210.123 141.628 210.528C141.852 210.933 142.188 211.136 142.636 211.136Z" fill="#F9F9F8"/>
</svg>
