<svg width="306" height="312" viewBox="0 0 306 312" fill="none" xmlns="http://www.w3.org/2000/svg">
<path d="M223.688 269.112C222.952 269.112 222.243 268.989 221.56 268.744C220.888 268.499 220.317 268.152 219.848 267.704L220.36 266.696C220.872 267.133 221.4 267.464 221.944 267.688C222.488 267.901 223.059 268.008 223.656 268.008C224.467 268.008 225.08 267.827 225.496 267.464C225.923 267.101 226.136 266.568 226.136 265.864C226.136 265.16 225.917 264.637 225.48 264.296C225.043 263.944 224.387 263.768 223.512 263.768H222.2V262.664H223.256C224.099 262.664 224.744 262.477 225.192 262.104C225.64 261.731 225.864 261.197 225.864 260.504C225.864 259.885 225.677 259.411 225.304 259.08C224.941 258.749 224.424 258.584 223.752 258.584C223.187 258.584 222.637 258.696 222.104 258.92C221.571 259.133 221.043 259.459 220.52 259.896L220.024 258.888C220.483 258.451 221.048 258.109 221.72 257.864C222.392 257.608 223.085 257.48 223.8 257.48C224.483 257.48 225.08 257.603 225.592 257.848C226.104 258.083 226.493 258.419 226.76 258.856C227.037 259.293 227.176 259.811 227.176 260.408C227.176 261.112 226.989 261.715 226.616 262.216C226.253 262.707 225.752 263.043 225.112 263.224L225.064 263.064C225.832 263.224 226.419 263.549 226.824 264.04C227.229 264.531 227.432 265.155 227.432 265.912C227.432 266.904 227.096 267.688 226.424 268.264C225.752 268.829 224.84 269.112 223.688 269.112ZM229.922 269V268.008L233.906 263.592C234.439 262.995 234.828 262.456 235.074 261.976C235.319 261.496 235.442 261.016 235.442 260.536C235.442 259.907 235.26 259.427 234.898 259.096C234.535 258.755 234.018 258.584 233.346 258.584C232.791 258.584 232.247 258.696 231.714 258.92C231.18 259.133 230.647 259.459 230.114 259.896L229.618 258.888C230.066 258.461 230.631 258.12 231.314 257.864C231.996 257.608 232.684 257.48 233.378 257.48C234.071 257.48 234.668 257.603 235.17 257.848C235.682 258.083 236.076 258.424 236.354 258.872C236.631 259.32 236.77 259.853 236.77 260.472C236.77 261.123 236.62 261.752 236.322 262.36C236.034 262.957 235.548 263.629 234.866 264.376L231.026 268.536L230.93 267.896H237.25V269H229.922ZM241.228 264.504C240.449 264.504 239.83 264.216 239.372 263.64C238.924 263.064 238.7 262.189 238.7 261.016C238.7 259.832 238.924 258.957 239.372 258.392C239.83 257.827 240.449 257.544 241.228 257.544C242.006 257.544 242.62 257.827 243.068 258.392C243.516 258.957 243.74 259.832 243.74 261.016C243.74 262.189 243.516 263.064 243.068 263.64C242.62 264.216 242.006 264.504 241.228 264.504ZM241.228 263.576C241.676 263.576 242.006 263.373 242.22 262.968C242.444 262.563 242.556 261.912 242.556 261.016C242.556 260.131 242.444 259.485 242.22 259.08C242.006 258.675 241.676 258.472 241.228 258.472C240.78 258.472 240.444 258.675 240.22 259.08C240.006 259.485 239.9 260.131 239.9 261.016C239.9 261.912 240.006 262.563 240.22 262.968C240.444 263.373 240.78 263.576 241.228 263.576ZM241.02 269L247.612 257.608H248.844L242.268 269H241.02ZM248.636 269.064C247.857 269.064 247.238 268.776 246.78 268.2C246.332 267.624 246.108 266.749 246.108 265.576C246.108 264.392 246.332 263.517 246.78 262.952C247.238 262.387 247.857 262.104 248.636 262.104C249.414 262.104 250.028 262.387 250.476 262.952C250.924 263.517 251.148 264.392 251.148 265.576C251.148 266.749 250.924 267.624 250.476 268.2C250.028 268.776 249.414 269.064 248.636 269.064ZM248.636 268.136C249.084 268.136 249.414 267.933 249.628 267.528C249.852 267.123 249.964 266.472 249.964 265.576C249.964 264.691 249.852 264.045 249.628 263.64C249.414 263.235 249.084 263.032 248.636 263.032C248.188 263.032 247.852 263.235 247.628 263.64C247.414 264.045 247.308 264.691 247.308 265.576C247.308 266.472 247.414 267.123 247.628 267.528C247.852 267.933 248.188 268.136 248.636 268.136ZM260.372 269L256.372 257.608H257.716L261.204 267.88H260.692L264.26 257.608L265.268 257.624L268.772 267.88H268.276L271.796 257.608H273.092L269.108 269H267.988L264.564 259.176H264.916L261.476 269H260.372ZM277.31 269.112C276.542 269.112 275.87 268.941 275.294 268.6C274.729 268.259 274.286 267.779 273.966 267.16C273.657 266.531 273.502 265.789 273.502 264.936C273.502 264.093 273.657 263.357 273.966 262.728C274.286 262.099 274.729 261.613 275.294 261.272C275.87 260.931 276.542 260.76 277.31 260.76C278.078 260.76 278.745 260.931 279.31 261.272C279.886 261.613 280.329 262.099 280.638 262.728C280.958 263.357 281.118 264.093 281.118 264.936C281.118 265.789 280.958 266.531 280.638 267.16C280.329 267.779 279.886 268.259 279.31 268.6C278.745 268.941 278.078 269.112 277.31 269.112ZM277.31 268.04C278.1 268.04 278.708 267.779 279.134 267.256C279.572 266.723 279.79 265.949 279.79 264.936C279.79 263.944 279.572 263.181 279.134 262.648C278.697 262.115 278.089 261.848 277.31 261.848C276.532 261.848 275.918 262.115 275.47 262.648C275.033 263.181 274.814 263.944 274.814 264.936C274.814 265.949 275.028 266.723 275.454 267.256C275.892 267.779 276.51 268.04 277.31 268.04ZM283.139 269V263.208C283.139 262.835 283.128 262.461 283.107 262.088C283.096 261.704 283.064 261.325 283.011 260.952H284.243L284.419 262.936L284.243 262.888C284.392 262.184 284.712 261.656 285.203 261.304C285.704 260.941 286.264 260.76 286.883 260.76C287.021 260.76 287.149 260.771 287.267 260.792C287.395 260.803 287.512 260.824 287.619 260.856L287.587 262.04C287.341 261.955 287.059 261.912 286.739 261.912C286.184 261.912 285.736 262.035 285.395 262.28C285.064 262.525 284.819 262.84 284.659 263.224C284.509 263.597 284.435 263.992 284.435 264.408V269H283.139ZM294.36 269L289.976 264.888L294.024 260.968H295.672L291.192 265.256L291.24 264.44L296.056 269H294.36ZM288.936 269V257.224H290.232V269H288.936Z" fill="black"/>
<path d="M223.56 303.408V293.376L224.312 293.76L221.224 295.728V294.464L224.136 292.608H224.888V303.408H223.56ZM221.048 304V302.896H227.4V304H221.048ZM233.154 303.408V293.376L233.906 293.76L230.818 295.728V294.464L233.73 292.608H234.482V303.408H233.154ZM230.642 304V302.896H236.994V304H230.642ZM241.228 299.504C240.449 299.504 239.83 299.216 239.372 298.64C238.924 298.064 238.7 297.189 238.7 296.016C238.7 294.832 238.924 293.957 239.372 293.392C239.83 292.827 240.449 292.544 241.228 292.544C242.006 292.544 242.62 292.827 243.068 293.392C243.516 293.957 243.74 294.832 243.74 296.016C243.74 297.189 243.516 298.064 243.068 298.64C242.62 299.216 242.006 299.504 241.228 299.504ZM241.228 298.576C241.676 298.576 242.006 298.373 242.22 297.968C242.444 297.563 242.556 296.912 242.556 296.016C242.556 295.131 242.444 294.485 242.22 294.08C242.006 293.675 241.676 293.472 241.228 293.472C240.78 293.472 240.444 293.675 240.22 294.08C240.006 294.485 239.9 295.131 239.9 296.016C239.9 296.912 240.006 297.563 240.22 297.968C240.444 298.373 240.78 298.576 241.228 298.576ZM241.02 304L247.612 292.608H248.844L242.268 304H241.02ZM248.636 304.064C247.857 304.064 247.238 303.776 246.78 303.2C246.332 302.624 246.108 301.749 246.108 300.576C246.108 299.392 246.332 298.517 246.78 297.952C247.238 297.387 247.857 297.104 248.636 297.104C249.414 297.104 250.028 297.387 250.476 297.952C250.924 298.517 251.148 299.392 251.148 300.576C251.148 301.749 250.924 302.624 250.476 303.2C250.028 303.776 249.414 304.064 248.636 304.064ZM248.636 303.136C249.084 303.136 249.414 302.933 249.628 302.528C249.852 302.123 249.964 301.472 249.964 300.576C249.964 299.691 249.852 299.045 249.628 298.64C249.414 298.235 249.084 298.032 248.636 298.032C248.188 298.032 247.852 298.235 247.628 298.64C247.414 299.045 247.308 299.691 247.308 300.576C247.308 301.472 247.414 302.123 247.628 302.528C247.852 302.933 248.188 303.136 248.636 303.136ZM260.868 304.128C260.281 304.128 259.732 304.08 259.22 303.984C258.708 303.877 258.233 303.717 257.796 303.504C257.358 303.28 256.964 303.008 256.612 302.688L257.108 301.68C257.684 302.16 258.26 302.501 258.836 302.704C259.422 302.907 260.105 303.008 260.884 303.008C261.79 303.008 262.494 302.832 262.996 302.48C263.497 302.117 263.748 301.611 263.748 300.96C263.748 300.565 263.62 300.251 263.364 300.016C263.118 299.771 262.777 299.579 262.34 299.44C261.913 299.291 261.428 299.152 260.884 299.024C260.34 298.907 259.822 298.773 259.332 298.624C258.841 298.464 258.404 298.267 258.02 298.032C257.646 297.797 257.353 297.499 257.14 297.136C256.926 296.773 256.82 296.32 256.82 295.776C256.82 295.125 256.99 294.555 257.332 294.064C257.673 293.563 258.153 293.173 258.772 292.896C259.39 292.619 260.121 292.48 260.964 292.48C261.486 292.48 261.988 292.539 262.468 292.656C262.948 292.763 263.39 292.923 263.796 293.136C264.212 293.349 264.58 293.611 264.9 293.92L264.388 294.928C263.865 294.469 263.326 294.133 262.772 293.92C262.217 293.707 261.614 293.6 260.964 293.6C260.078 293.6 259.385 293.787 258.884 294.16C258.382 294.533 258.132 295.056 258.132 295.728C258.132 296.144 258.244 296.48 258.468 296.736C258.692 296.992 259.006 297.2 259.412 297.36C259.817 297.509 260.281 297.648 260.804 297.776C261.358 297.904 261.892 298.043 262.404 298.192C262.916 298.341 263.369 298.528 263.764 298.752C264.169 298.965 264.489 299.248 264.724 299.6C264.958 299.941 265.076 300.379 265.076 300.912C265.076 301.563 264.905 302.128 264.564 302.608C264.222 303.088 263.737 303.461 263.108 303.728C262.478 303.995 261.732 304.128 260.868 304.128ZM270.437 304.112C269.647 304.112 268.965 303.941 268.389 303.6C267.813 303.259 267.365 302.779 267.045 302.16C266.735 301.541 266.581 300.811 266.581 299.968C266.581 299.136 266.741 298.405 267.061 297.776C267.381 297.136 267.834 296.64 268.421 296.288C269.007 295.936 269.701 295.76 270.501 295.76C271.045 295.76 271.567 295.856 272.069 296.048C272.581 296.229 273.002 296.485 273.333 296.816L272.901 297.776C272.506 297.467 272.117 297.237 271.733 297.088C271.359 296.928 270.97 296.848 270.565 296.848C269.754 296.848 269.109 297.12 268.629 297.664C268.159 298.208 267.924 298.976 267.924 299.968C267.924 300.949 268.159 301.707 268.629 302.24C269.098 302.773 269.743 303.04 270.565 303.04C270.959 303.04 271.349 302.965 271.733 302.816C272.117 302.656 272.506 302.421 272.901 302.112L273.333 303.072C272.991 303.392 272.559 303.648 272.037 303.84C271.525 304.021 270.991 304.112 270.437 304.112ZM274.982 304V292.224H276.278V297.584L276.07 297.744C276.294 297.093 276.668 296.603 277.19 296.272C277.713 295.931 278.316 295.76 278.998 295.76C280.929 295.76 281.894 296.821 281.894 298.944V304H280.598V299.008C280.598 298.261 280.449 297.717 280.15 297.376C279.852 297.024 279.382 296.848 278.742 296.848C277.996 296.848 277.398 297.077 276.95 297.536C276.502 297.995 276.278 298.613 276.278 299.392V304H274.982ZM287.67 304.112C286.902 304.112 286.23 303.941 285.654 303.6C285.088 303.259 284.646 302.779 284.326 302.16C284.016 301.531 283.862 300.789 283.862 299.936C283.862 299.093 284.016 298.357 284.326 297.728C284.646 297.099 285.088 296.613 285.654 296.272C286.23 295.931 286.902 295.76 287.67 295.76C288.438 295.76 289.104 295.931 289.67 296.272C290.246 296.613 290.688 297.099 290.998 297.728C291.318 298.357 291.478 299.093 291.478 299.936C291.478 300.789 291.318 301.531 290.998 302.16C290.688 302.779 290.246 303.259 289.67 303.6C289.104 303.941 288.438 304.112 287.67 304.112ZM287.67 303.04C288.459 303.04 289.067 302.779 289.494 302.256C289.931 301.723 290.15 300.949 290.15 299.936C290.15 298.944 289.931 298.181 289.494 297.648C289.056 297.115 288.448 296.848 287.67 296.848C286.891 296.848 286.278 297.115 285.83 297.648C285.392 298.181 285.174 298.944 285.174 299.936C285.174 300.949 285.387 301.723 285.814 302.256C286.251 302.779 286.87 303.04 287.67 303.04ZM296.826 304.112C296.058 304.112 295.386 303.941 294.81 303.6C294.245 303.259 293.802 302.779 293.482 302.16C293.173 301.531 293.018 300.789 293.018 299.936C293.018 299.093 293.173 298.357 293.482 297.728C293.802 297.099 294.245 296.613 294.81 296.272C295.386 295.931 296.058 295.76 296.826 295.76C297.594 295.76 298.261 295.931 298.826 296.272C299.402 296.613 299.845 297.099 300.154 297.728C300.474 298.357 300.634 299.093 300.634 299.936C300.634 300.789 300.474 301.531 300.154 302.16C299.845 302.779 299.402 303.259 298.826 303.6C298.261 303.941 297.594 304.112 296.826 304.112ZM296.826 303.04C297.615 303.04 298.223 302.779 298.65 302.256C299.087 301.723 299.306 300.949 299.306 299.936C299.306 298.944 299.087 298.181 298.65 297.648C298.213 297.115 297.605 296.848 296.826 296.848C296.047 296.848 295.434 297.115 294.986 297.648C294.549 298.181 294.33 298.944 294.33 299.936C294.33 300.949 294.543 301.723 294.97 302.256C295.407 302.779 296.026 303.04 296.826 303.04ZM302.654 304V292.224H303.95V304H302.654Z" fill="black"/>
<path d="M26.688 304.112C25.952 304.112 25.2427 303.989 24.56 303.744C23.888 303.499 23.3173 303.152 22.848 302.704L23.36 301.696C23.872 302.133 24.4 302.464 24.944 302.688C25.488 302.901 26.0587 303.008 26.656 303.008C27.4667 303.008 28.08 302.827 28.496 302.464C28.9227 302.101 29.136 301.568 29.136 300.864C29.136 300.16 28.9173 299.637 28.48 299.296C28.0427 298.944 27.3867 298.768 26.512 298.768H25.2V297.664H26.256C27.0987 297.664 27.744 297.477 28.192 297.104C28.64 296.731 28.864 296.197 28.864 295.504C28.864 294.885 28.6773 294.411 28.304 294.08C27.9413 293.749 27.424 293.584 26.752 293.584C26.1867 293.584 25.6373 293.696 25.104 293.92C24.5707 294.133 24.0427 294.459 23.52 294.896L23.024 293.888C23.4827 293.451 24.048 293.109 24.72 292.864C25.392 292.608 26.0853 292.48 26.8 292.48C27.4827 292.48 28.08 292.603 28.592 292.848C29.104 293.083 29.4933 293.419 29.76 293.856C30.0373 294.293 30.176 294.811 30.176 295.408C30.176 296.112 29.9893 296.715 29.616 297.216C29.2533 297.707 28.752 298.043 28.112 298.224L28.064 298.064C28.832 298.224 29.4187 298.549 29.824 299.04C30.2293 299.531 30.432 300.155 30.432 300.912C30.432 301.904 30.096 302.688 29.424 303.264C28.752 303.829 27.84 304.112 26.688 304.112ZM34.6338 299.504C33.8551 299.504 33.2364 299.216 32.7778 298.64C32.3298 298.064 32.1058 297.189 32.1058 296.016C32.1058 294.832 32.3298 293.957 32.7778 293.392C33.2364 292.827 33.8551 292.544 34.6338 292.544C35.4124 292.544 36.0258 292.827 36.4738 293.392C36.9218 293.957 37.1458 294.832 37.1458 296.016C37.1458 297.189 36.9218 298.064 36.4738 298.64C36.0258 299.216 35.4124 299.504 34.6338 299.504ZM34.6338 298.576C35.0818 298.576 35.4124 298.373 35.6258 297.968C35.8498 297.563 35.9618 296.912 35.9618 296.016C35.9618 295.131 35.8498 294.485 35.6258 294.08C35.4124 293.675 35.0818 293.472 34.6338 293.472C34.1858 293.472 33.8498 293.675 33.6258 294.08C33.4124 294.485 33.3058 295.131 33.3058 296.016C33.3058 296.912 33.4124 297.563 33.6258 297.968C33.8498 298.373 34.1858 298.576 34.6338 298.576ZM34.4258 304L41.0178 292.608H42.2498L35.6738 304H34.4258ZM42.0418 304.064C41.2631 304.064 40.6444 303.776 40.1858 303.2C39.7378 302.624 39.5138 301.749 39.5138 300.576C39.5138 299.392 39.7378 298.517 40.1858 297.952C40.6444 297.387 41.2631 297.104 42.0418 297.104C42.8204 297.104 43.4338 297.387 43.8818 297.952C44.3298 298.517 44.5538 299.392 44.5538 300.576C44.5538 301.749 44.3298 302.624 43.8818 303.2C43.4338 303.776 42.8204 304.064 42.0418 304.064ZM42.0418 303.136C42.4898 303.136 42.8204 302.933 43.0338 302.528C43.2578 302.123 43.3698 301.472 43.3698 300.576C43.3698 299.691 43.2578 299.045 43.0338 298.64C42.8204 298.235 42.4898 298.032 42.0418 298.032C41.5938 298.032 41.2578 298.235 41.0338 298.64C40.8204 299.045 40.7138 299.691 40.7138 300.576C40.7138 301.472 40.8204 302.123 41.0338 302.528C41.2578 302.933 41.5938 303.136 42.0418 303.136ZM54.274 304.128C53.6873 304.128 53.138 304.08 52.626 303.984C52.114 303.877 51.6393 303.717 51.202 303.504C50.7647 303.28 50.37 303.008 50.018 302.688L50.514 301.68C51.09 302.16 51.666 302.501 52.242 302.704C52.8287 302.907 53.5113 303.008 54.29 303.008C55.1967 303.008 55.9007 302.832 56.402 302.48C56.9033 302.117 57.154 301.611 57.154 300.96C57.154 300.565 57.026 300.251 56.77 300.016C56.5247 299.771 56.1833 299.579 55.746 299.44C55.3193 299.291 54.834 299.152 54.29 299.024C53.746 298.907 53.2287 298.773 52.738 298.624C52.2473 298.464 51.81 298.267 51.426 298.032C51.0527 297.797 50.7593 297.499 50.546 297.136C50.3327 296.773 50.226 296.32 50.226 295.776C50.226 295.125 50.3967 294.555 50.738 294.064C51.0793 293.563 51.5593 293.173 52.178 292.896C52.7967 292.619 53.5273 292.48 54.37 292.48C54.8927 292.48 55.394 292.539 55.874 292.656C56.354 292.763 56.7967 292.923 57.202 293.136C57.618 293.349 57.986 293.611 58.306 293.92L57.794 294.928C57.2713 294.469 56.7327 294.133 56.178 293.92C55.6233 293.707 55.0207 293.6 54.37 293.6C53.4847 293.6 52.7913 293.787 52.29 294.16C51.7887 294.533 51.538 295.056 51.538 295.728C51.538 296.144 51.65 296.48 51.874 296.736C52.098 296.992 52.4127 297.2 52.818 297.36C53.2233 297.509 53.6873 297.648 54.21 297.776C54.7647 297.904 55.298 298.043 55.81 298.192C56.322 298.341 56.7753 298.528 57.17 298.752C57.5753 298.965 57.8953 299.248 58.13 299.6C58.3647 299.941 58.482 300.379 58.482 300.912C58.482 301.563 58.3113 302.128 57.97 302.608C57.6287 303.088 57.1433 303.461 56.514 303.728C55.8847 303.995 55.138 304.128 54.274 304.128ZM63.7948 304.112C63.0268 304.112 62.3548 303.941 61.7788 303.6C61.2134 303.259 60.7708 302.779 60.4508 302.16C60.1414 301.531 59.9868 300.789 59.9868 299.936C59.9868 299.093 60.1414 298.357 60.4508 297.728C60.7708 297.099 61.2134 296.613 61.7788 296.272C62.3548 295.931 63.0268 295.76 63.7948 295.76C64.5628 295.76 65.2294 295.931 65.7948 296.272C66.3708 296.613 66.8134 297.099 67.1228 297.728C67.4428 298.357 67.6028 299.093 67.6028 299.936C67.6028 300.789 67.4428 301.531 67.1228 302.16C66.8134 302.779 66.3708 303.259 65.7948 303.6C65.2294 303.941 64.5628 304.112 63.7948 304.112ZM63.7948 303.04C64.5841 303.04 65.1921 302.779 65.6188 302.256C66.0561 301.723 66.2748 300.949 66.2748 299.936C66.2748 298.944 66.0561 298.181 65.6188 297.648C65.1814 297.115 64.5734 296.848 63.7948 296.848C63.0161 296.848 62.4028 297.115 61.9548 297.648C61.5174 298.181 61.2988 298.944 61.2988 299.936C61.2988 300.949 61.5121 301.723 61.9388 302.256C62.3761 302.779 62.9948 303.04 63.7948 303.04ZM72.999 304.112C72.2097 304.112 71.527 303.941 70.951 303.6C70.375 303.259 69.927 302.779 69.607 302.16C69.2977 301.541 69.143 300.811 69.143 299.968C69.143 299.136 69.303 298.405 69.623 297.776C69.943 297.136 70.3963 296.64 70.983 296.288C71.5697 295.936 72.263 295.76 73.063 295.76C73.607 295.76 74.1297 295.856 74.631 296.048C75.143 296.229 75.5643 296.485 75.895 296.816L75.463 297.776C75.0683 297.467 74.679 297.237 74.295 297.088C73.9217 296.928 73.5323 296.848 73.127 296.848C72.3163 296.848 71.671 297.12 71.191 297.664C70.7217 298.208 70.487 298.976 70.487 299.968C70.487 300.949 70.7217 301.707 71.191 302.24C71.6603 302.773 72.3057 303.04 73.127 303.04C73.5217 303.04 73.911 302.965 74.295 302.816C74.679 302.656 75.0683 302.421 75.463 302.112L75.895 303.072C75.5537 303.392 75.1217 303.648 74.599 303.84C74.087 304.021 73.5537 304.112 72.999 304.112ZM77.5449 304V295.952H78.8409V304H77.5449ZM77.4169 292.544H79.0009V294.016H77.4169V292.544ZM84.4454 304.112C83.7307 304.112 83.1014 303.947 82.5574 303.616C82.024 303.275 81.608 302.795 81.3094 302.176C81.0214 301.547 80.8774 300.811 80.8774 299.968C80.8774 299.125 81.0267 298.389 81.3254 297.76C81.624 297.131 82.04 296.64 82.5734 296.288C83.1174 295.936 83.7414 295.76 84.4454 295.76C85.1814 295.76 85.8054 295.941 86.3174 296.304C86.8294 296.667 87.176 297.184 87.3574 297.856L87.1654 297.984V295.952H88.4454V304H87.1654V301.92L87.3574 302.016C87.176 302.688 86.8294 303.205 86.3174 303.568C85.8054 303.931 85.1814 304.112 84.4454 304.112ZM84.7014 303.04C85.4907 303.04 86.0987 302.773 86.5254 302.24C86.952 301.696 87.1654 300.928 87.1654 299.936C87.1654 298.944 86.9467 298.181 86.5094 297.648C86.0827 297.115 85.48 296.848 84.7014 296.848C83.912 296.848 83.2934 297.125 82.8454 297.68C82.408 298.224 82.1894 298.987 82.1894 299.968C82.1894 300.949 82.408 301.707 82.8454 302.24C83.2934 302.773 83.912 303.04 84.7014 303.04ZM90.9511 304V292.224H92.2471V304H90.9511ZM102.712 304.128C102.125 304.128 101.576 304.08 101.064 303.984C100.552 303.877 100.077 303.717 99.6395 303.504C99.2022 303.28 98.8075 303.008 98.4555 302.688L98.9515 301.68C99.5275 302.16 100.104 302.501 100.68 302.704C101.266 302.907 101.949 303.008 102.728 303.008C103.634 303.008 104.338 302.832 104.84 302.48C105.341 302.117 105.592 301.611 105.592 300.96C105.592 300.565 105.464 300.251 105.208 300.016C104.962 299.771 104.621 299.579 104.184 299.44C103.757 299.291 103.272 299.152 102.728 299.024C102.184 298.907 101.666 298.773 101.176 298.624C100.685 298.464 100.248 298.267 99.8635 298.032C99.4902 297.797 99.1968 297.499 98.9835 297.136C98.7702 296.773 98.6635 296.32 98.6635 295.776C98.6635 295.125 98.8342 294.555 99.1755 294.064C99.5168 293.563 99.9968 293.173 100.616 292.896C101.234 292.619 101.965 292.48 102.808 292.48C103.33 292.48 103.832 292.539 104.312 292.656C104.792 292.763 105.234 292.923 105.64 293.136C106.056 293.349 106.424 293.611 106.744 293.92L106.232 294.928C105.709 294.469 105.17 294.133 104.616 293.92C104.061 293.707 103.458 293.6 102.808 293.6C101.922 293.6 101.229 293.787 100.728 294.16C100.226 294.533 99.9755 295.056 99.9755 295.728C99.9755 296.144 100.088 296.48 100.312 296.736C100.536 296.992 100.85 297.2 101.256 297.36C101.661 297.509 102.125 297.648 102.648 297.776C103.202 297.904 103.736 298.043 104.248 298.192C104.76 298.341 105.213 298.528 105.608 298.752C106.013 298.965 106.333 299.248 106.568 299.6C106.802 299.941 106.92 300.379 106.92 300.912C106.92 301.563 106.749 302.128 106.408 302.608C106.066 303.088 105.581 303.461 104.952 303.728C104.322 303.995 103.576 304.128 102.712 304.128ZM108.904 304V292.224H110.2V297.584L109.992 297.744C110.216 297.093 110.59 296.603 111.112 296.272C111.635 295.931 112.238 295.76 112.92 295.76C114.851 295.76 115.816 296.821 115.816 298.944V304H114.52V299.008C114.52 298.261 114.371 297.717 114.072 297.376C113.774 297.024 113.304 296.848 112.664 296.848C111.918 296.848 111.32 297.077 110.872 297.536C110.424 297.995 110.2 298.613 110.2 299.392V304H108.904ZM121.352 304.112C120.637 304.112 120.008 303.947 119.464 303.616C118.93 303.275 118.514 302.795 118.216 302.176C117.928 301.547 117.784 300.811 117.784 299.968C117.784 299.125 117.933 298.389 118.232 297.76C118.53 297.131 118.946 296.64 119.48 296.288C120.024 295.936 120.648 295.76 121.352 295.76C122.088 295.76 122.712 295.941 123.224 296.304C123.736 296.667 124.082 297.184 124.264 297.856L124.072 297.984V295.952H125.352V304H124.072V301.92L124.264 302.016C124.082 302.688 123.736 303.205 123.224 303.568C122.712 303.931 122.088 304.112 121.352 304.112ZM121.608 303.04C122.397 303.04 123.005 302.773 123.432 302.24C123.858 301.696 124.072 300.928 124.072 299.936C124.072 298.944 123.853 298.181 123.416 297.648C122.989 297.115 122.386 296.848 121.608 296.848C120.818 296.848 120.2 297.125 119.752 297.68C119.314 298.224 119.096 298.987 119.096 299.968C119.096 300.949 119.314 301.707 119.752 302.24C120.2 302.773 120.818 303.04 121.608 303.04ZM127.857 304V298.208C127.857 297.835 127.847 297.461 127.825 297.088C127.815 296.704 127.783 296.325 127.729 295.952H128.961L129.137 297.936L128.961 297.888C129.111 297.184 129.431 296.656 129.921 296.304C130.423 295.941 130.983 295.76 131.601 295.76C131.74 295.76 131.868 295.771 131.985 295.792C132.113 295.803 132.231 295.824 132.337 295.856L132.305 297.04C132.06 296.955 131.777 296.912 131.457 296.912C130.903 296.912 130.455 297.035 130.113 297.28C129.783 297.525 129.537 297.84 129.377 298.224C129.228 298.597 129.153 298.992 129.153 299.408V304H127.857ZM133.654 304V295.952H134.95V304H133.654ZM133.526 292.544H135.11V294.016H133.526V292.544ZM137.467 304V298.208C137.467 297.835 137.456 297.461 137.435 297.088C137.424 296.704 137.392 296.325 137.339 295.952H138.571L138.715 297.616L138.555 297.744C138.779 297.093 139.152 296.603 139.675 296.272C140.197 295.931 140.8 295.76 141.483 295.76C143.413 295.76 144.379 296.821 144.379 298.944V304H143.083V299.008C143.083 298.261 142.933 297.717 142.635 297.376C142.336 297.024 141.867 296.848 141.227 296.848C140.48 296.848 139.883 297.077 139.435 297.536C138.987 297.995 138.763 298.613 138.763 299.392V304H137.467ZM150.362 307.568C149.146 307.568 148.09 307.291 147.194 306.736L147.418 305.68C147.919 305.968 148.394 306.176 148.842 306.304C149.29 306.432 149.797 306.496 150.362 306.496C151.13 306.496 151.711 306.288 152.106 305.872C152.511 305.467 152.714 304.859 152.714 304.048V301.872L152.89 301.664C152.762 302.091 152.559 302.464 152.282 302.784C152.015 303.093 151.685 303.333 151.29 303.504C150.895 303.675 150.447 303.76 149.946 303.76C149.231 303.76 148.602 303.595 148.058 303.264C147.525 302.923 147.103 302.453 146.794 301.856C146.495 301.259 146.346 300.56 146.346 299.76C146.346 298.96 146.495 298.261 146.794 297.664C147.103 297.067 147.525 296.603 148.058 296.272C148.602 295.931 149.231 295.76 149.946 295.76C150.693 295.76 151.322 295.947 151.834 296.32C152.357 296.683 152.709 297.195 152.89 297.856L152.698 297.68V295.952H153.994V303.936C153.994 305.141 153.685 306.048 153.066 306.656C152.458 307.264 151.557 307.568 150.362 307.568ZM150.202 302.672C150.981 302.672 151.589 302.416 152.026 301.904C152.474 301.381 152.698 300.667 152.698 299.76C152.698 298.853 152.474 298.144 152.026 297.632C151.589 297.109 150.981 296.848 150.202 296.848C149.413 296.848 148.789 297.109 148.33 297.632C147.882 298.144 147.658 298.853 147.658 299.76C147.658 300.677 147.882 301.392 148.33 301.904C148.789 302.416 149.413 302.672 150.202 302.672Z" fill="black"/>
<path d="M26.976 269.112C26.2827 269.112 25.6 268.989 24.928 268.744C24.256 268.488 23.6907 268.141 23.232 267.704L23.728 266.696C24.2507 267.123 24.7787 267.448 25.312 267.672C25.856 267.896 26.4107 268.008 26.976 268.008C27.776 268.008 28.4 267.784 28.848 267.336C29.3067 266.877 29.536 266.259 29.536 265.48C29.536 264.979 29.4347 264.541 29.232 264.168C29.0293 263.784 28.7413 263.485 28.368 263.272C28.0053 263.059 27.5733 262.952 27.072 262.952C26.528 262.952 26.0373 263.064 25.6 263.288C25.1733 263.501 24.7947 263.832 24.464 264.28H23.552V257.608H30.384V258.696H24.864V263.304L24.448 263.256C24.7573 262.808 25.152 262.461 25.632 262.216C26.1227 261.971 26.672 261.848 27.28 261.848C28.0053 261.848 28.6347 262.003 29.168 262.312C29.7013 262.611 30.112 263.032 30.4 263.576C30.688 264.12 30.832 264.749 30.832 265.464C30.832 266.179 30.672 266.813 30.352 267.368C30.0427 267.912 29.6 268.339 29.024 268.648C28.448 268.957 27.7653 269.112 26.976 269.112ZM37.6258 269V259.256H38.0258L33.2898 266.088L33.3058 265.432H40.6658V266.52H32.3778V265.528L37.8658 257.608H38.9378V269H37.6258ZM44.2275 264.504C43.4488 264.504 42.8302 264.216 42.3715 263.64C41.9235 263.064 41.6995 262.189 41.6995 261.016C41.6995 259.832 41.9235 258.957 42.3715 258.392C42.8302 257.827 43.4488 257.544 44.2275 257.544C45.0062 257.544 45.6195 257.827 46.0675 258.392C46.5155 258.957 46.7395 259.832 46.7395 261.016C46.7395 262.189 46.5155 263.064 46.0675 263.64C45.6195 264.216 45.0062 264.504 44.2275 264.504ZM44.2275 263.576C44.6755 263.576 45.0062 263.373 45.2195 262.968C45.4435 262.563 45.5555 261.912 45.5555 261.016C45.5555 260.131 45.4435 259.485 45.2195 259.08C45.0062 258.675 44.6755 258.472 44.2275 258.472C43.7795 258.472 43.4435 258.675 43.2195 259.08C43.0062 259.485 42.8995 260.131 42.8995 261.016C42.8995 261.912 43.0062 262.563 43.2195 262.968C43.4435 263.373 43.7795 263.576 44.2275 263.576ZM44.0195 269L50.6115 257.608H51.8435L45.2675 269H44.0195ZM51.6355 269.064C50.8568 269.064 50.2382 268.776 49.7795 268.2C49.3315 267.624 49.1075 266.749 49.1075 265.576C49.1075 264.392 49.3315 263.517 49.7795 262.952C50.2382 262.387 50.8568 262.104 51.6355 262.104C52.4142 262.104 53.0275 262.387 53.4755 262.952C53.9235 263.517 54.1475 264.392 54.1475 265.576C54.1475 266.749 53.9235 267.624 53.4755 268.2C53.0275 268.776 52.4142 269.064 51.6355 269.064ZM51.6355 268.136C52.0835 268.136 52.4142 267.933 52.6275 267.528C52.8515 267.123 52.9635 266.472 52.9635 265.576C52.9635 264.691 52.8515 264.045 52.6275 263.64C52.4142 263.235 52.0835 263.032 51.6355 263.032C51.1875 263.032 50.8515 263.235 50.6275 263.64C50.4142 264.045 50.3075 264.691 50.3075 265.576C50.3075 266.472 50.4142 267.123 50.6275 267.528C50.8515 267.933 51.1875 268.136 51.6355 268.136ZM60.2518 269V257.608H64.7958C65.9691 257.608 66.8811 257.891 67.5318 258.456C68.1931 259.021 68.5238 259.8 68.5238 260.792C68.5238 261.773 68.1931 262.552 67.5318 263.128C66.8704 263.704 65.9584 263.992 64.7958 263.992H61.5638V269H60.2518ZM61.5638 262.904H64.6838C65.5264 262.904 66.1611 262.723 66.5878 262.36C67.0144 261.987 67.2278 261.464 67.2278 260.792C67.2278 260.12 67.0144 259.603 66.5878 259.24C66.1611 258.877 65.5264 258.696 64.6838 258.696H61.5638V262.904ZM76.84 268.04C76.488 268.371 76.0347 268.632 75.48 268.824C74.936 269.016 74.376 269.112 73.8 269.112C72.968 269.112 72.248 268.947 71.64 268.616C71.0427 268.285 70.5787 267.811 70.248 267.192C69.928 266.563 69.768 265.816 69.768 264.952C69.768 264.12 69.928 263.389 70.248 262.76C70.568 262.131 71.0107 261.64 71.576 261.288C72.152 260.936 72.8133 260.76 73.56 260.76C74.2747 260.76 74.888 260.92 75.4 261.24C75.912 261.549 76.3013 261.997 76.568 262.584C76.8453 263.171 76.984 263.875 76.984 264.696V264.936H70.904V264.088H76.248L75.832 264.68C75.8533 263.741 75.6667 263.021 75.272 262.52C74.888 262.019 74.3227 261.768 73.576 261.768C72.7973 261.768 72.184 262.045 71.736 262.6C71.2987 263.144 71.08 263.901 71.08 264.872C71.08 265.917 71.3093 266.707 71.768 267.24C72.2373 267.773 72.92 268.04 73.816 268.04C74.2853 268.04 74.7333 267.965 75.16 267.816C75.5973 267.656 76.0133 267.416 76.408 267.096L76.84 268.04ZM78.9511 269V263.208C78.9511 262.835 78.9405 262.461 78.9191 262.088C78.9085 261.704 78.8765 261.325 78.8231 260.952H80.0551L80.2311 262.936L80.0551 262.888C80.2045 262.184 80.5245 261.656 81.0151 261.304C81.5165 260.941 82.0765 260.76 82.6951 260.76C82.8338 260.76 82.9618 260.771 83.0791 260.792C83.2071 260.803 83.3245 260.824 83.4311 260.856L83.3991 262.04C83.1538 261.955 82.8711 261.912 82.5511 261.912C81.9965 261.912 81.5485 262.035 81.2071 262.28C80.8765 262.525 80.6311 262.84 80.4711 263.224C80.3218 263.597 80.2471 263.992 80.2471 264.408V269H78.9511ZM87.3899 269.112C86.0352 269.112 84.9632 268.765 84.1739 268.072L84.6059 267.112C85.0325 267.443 85.4699 267.688 85.9179 267.848C86.3765 267.997 86.8832 268.072 87.4379 268.072C88.0459 268.072 88.5045 267.971 88.8139 267.768C89.1339 267.555 89.2939 267.251 89.2939 266.856C89.2939 266.536 89.1872 266.285 88.9739 266.104C88.7605 265.912 88.4085 265.757 87.9179 265.64L86.5579 265.32C85.8859 265.171 85.3632 264.904 84.9899 264.52C84.6272 264.136 84.4459 263.677 84.4459 263.144C84.4459 262.675 84.5739 262.264 84.8299 261.912C85.0859 261.549 85.4432 261.267 85.9019 261.064C86.3605 260.861 86.9045 260.76 87.5339 260.76C88.0992 260.76 88.6325 260.851 89.1339 261.032C89.6352 261.213 90.0565 261.475 90.3979 261.816L89.9659 262.76C89.5819 262.44 89.1872 262.205 88.7819 262.056C88.3872 261.896 87.9712 261.816 87.5339 261.816C86.9579 261.816 86.5099 261.928 86.1899 262.152C85.8805 262.376 85.7259 262.68 85.7259 263.064C85.7259 263.395 85.8219 263.656 86.0139 263.848C86.2165 264.04 86.5365 264.189 86.9739 264.296L88.3339 264.632C89.0912 264.792 89.6459 265.059 89.9979 265.432C90.3605 265.795 90.5419 266.259 90.5419 266.824C90.5419 267.517 90.2592 268.072 89.6939 268.488C89.1285 268.904 88.3605 269.112 87.3899 269.112ZM95.9354 269.112C95.1674 269.112 94.4954 268.941 93.9194 268.6C93.354 268.259 92.9114 267.779 92.5914 267.16C92.282 266.531 92.1274 265.789 92.1274 264.936C92.1274 264.093 92.282 263.357 92.5914 262.728C92.9114 262.099 93.354 261.613 93.9194 261.272C94.4954 260.931 95.1674 260.76 95.9354 260.76C96.7034 260.76 97.37 260.931 97.9354 261.272C98.5114 261.613 98.954 262.099 99.2634 262.728C99.5834 263.357 99.7434 264.093 99.7434 264.936C99.7434 265.789 99.5834 266.531 99.2634 267.16C98.954 267.779 98.5114 268.259 97.9354 268.6C97.37 268.941 96.7034 269.112 95.9354 269.112ZM95.9354 268.04C96.7247 268.04 97.3327 267.779 97.7594 267.256C98.1967 266.723 98.4154 265.949 98.4154 264.936C98.4154 263.944 98.1967 263.181 97.7594 262.648C97.322 262.115 96.714 261.848 95.9354 261.848C95.1567 261.848 94.5434 262.115 94.0954 262.648C93.658 263.181 93.4394 263.944 93.4394 264.936C93.4394 265.949 93.6527 266.723 94.0794 267.256C94.5167 267.779 95.1354 268.04 95.9354 268.04ZM101.764 269V263.208C101.764 262.835 101.753 262.461 101.732 262.088C101.721 261.704 101.689 261.325 101.636 260.952H102.868L103.012 262.616L102.852 262.744C103.076 262.093 103.449 261.603 103.972 261.272C104.494 260.931 105.097 260.76 105.78 260.76C107.71 260.76 108.676 261.821 108.676 263.944V269H107.38V264.008C107.38 263.261 107.23 262.717 106.932 262.376C106.633 262.024 106.164 261.848 105.524 261.848C104.777 261.848 104.18 262.077 103.732 262.536C103.284 262.995 103.06 263.613 103.06 264.392V269H101.764ZM114.211 269.112C113.496 269.112 112.867 268.947 112.323 268.616C111.79 268.275 111.374 267.795 111.075 267.176C110.787 266.547 110.643 265.811 110.643 264.968C110.643 264.125 110.792 263.389 111.091 262.76C111.39 262.131 111.806 261.64 112.339 261.288C112.883 260.936 113.507 260.76 114.211 260.76C114.947 260.76 115.571 260.941 116.083 261.304C116.595 261.667 116.942 262.184 117.123 262.856L116.931 262.984V260.952H118.211V269H116.931V266.92L117.123 267.016C116.942 267.688 116.595 268.205 116.083 268.568C115.571 268.931 114.947 269.112 114.211 269.112ZM114.467 268.04C115.256 268.04 115.864 267.773 116.291 267.24C116.718 266.696 116.931 265.928 116.931 264.936C116.931 263.944 116.712 263.181 116.275 262.648C115.848 262.115 115.246 261.848 114.467 261.848C113.678 261.848 113.059 262.125 112.611 262.68C112.174 263.224 111.955 263.987 111.955 264.968C111.955 265.949 112.174 266.707 112.611 267.24C113.059 267.773 113.678 268.04 114.467 268.04ZM120.717 269V257.224H122.013V269H120.717Z" fill="black"/>
<rect y="253" width="16" height="16" fill="#CDAD98"/>
<rect y="286" width="16" height="16" fill="#999999"/>
<rect x="196" y="286" width="16" height="16" fill="#F6F2EF"/>
<rect x="196" y="251" width="16" height="16" fill="#1F1F1F"/>
<path d="M136.846 35.3796C149.274 31.8323 162.331 31.066 175.088 33.1351C187.846 35.2042 199.991 40.0579 210.661 47.3514C221.33 54.6448 230.262 64.1989 236.822 75.3346C243.382 86.4703 247.408 98.9142 248.615 111.782C249.822 124.65 248.18 137.625 243.806 149.786C239.431 161.948 232.431 172.996 223.304 182.147C214.177 191.297 203.146 198.325 190.996 202.73C178.846 207.135 165.874 208.81 153.004 207.636L154.333 193.07C165.064 194.05 175.88 192.653 186.011 188.98C196.141 185.307 205.339 179.447 212.949 171.818C220.559 164.188 226.395 154.976 230.043 144.836C233.69 134.696 235.06 123.877 234.053 113.148C233.047 102.419 229.69 92.0431 224.22 82.7582C218.751 73.4733 211.303 65.5072 202.407 59.4259C193.511 53.3447 183.384 49.2977 172.747 47.5725C162.11 45.8472 151.223 46.4862 140.861 49.444L136.846 35.3796Z" fill="#CDAD98"/>
<path d="M153.712 207.698C138.111 206.401 123.138 200.966 110.337 191.954C97.5371 182.941 87.3727 170.676 80.8927 156.426C74.4127 142.175 71.8516 126.453 73.4736 110.882C75.0956 95.3116 80.842 80.4554 90.1201 67.846L101.901 76.5142C94.1647 87.0279 89.3734 99.4149 88.0209 112.398C86.6685 125.381 88.8039 138.489 94.2069 150.371C99.6099 162.254 108.085 172.48 118.758 179.994C129.431 187.509 141.915 192.041 154.923 193.122L153.712 207.698Z" fill="#1F1F1F"/>
<path d="M86.1214 73.7703C90.9464 65.9552 96.9651 58.9436 103.959 52.9902L113.439 64.1276C107.608 69.0915 102.59 74.9377 98.5666 81.4539L86.1214 73.7703Z" fill="#999999"/>
<path d="M103.488 53.394C115.07 43.3929 129.061 36.585 144.078 33.6423L146.891 47.9954C134.369 50.449 122.704 56.1254 113.047 64.4643L103.488 53.394Z" fill="#F6F2EF"/>
</svg>
